<?xml version="1.0" standalone="no"?>
<!DOCTYPE svg PUBLIC "-//W3C//DTD SVG 1.1//EN" "http://www.w3.org/Graphics/SVG/1.1/DTD/svg11.dtd" >
<svg>
<metadata>
Created by FontForge 20090914 at Fri May 14 23:36:11 2021
 By www-data
Created by Thatcher Ulrich (http://tulrich.com) with FontForge 1.0 (http://fontforge.sf.net)

This font, including hint instructions, has been donated to the Public Domain.  Do whatever you want with it.

</metadata>
<defs>
<font id="Tuffy" horiz-adv-x="1136" >
  <font-face 
    font-family="Tuffy"
    font-weight="500"
    font-stretch="normal"
    units-per-em="2048"
    panose-1="2 11 6 3 6 1 0 0 0 0"
    ascent="1597"
    descent="-451"
    x-height="1073"
    cap-height="1456"
    bbox="-119 -449.005 1565 1993"
    underline-thickness="50"
    underline-position="-75"
    unicode-range="U+0020-U+20AC"
  />
<missing-glyph horiz-adv-x="-32768" 
 />
    <glyph glyph-name=".notdef" horiz-adv-x="-32768" 
 />
    <glyph glyph-name="space" unicode=" " horiz-adv-x="616" 
 />
    <glyph glyph-name="exclam" unicode="!" horiz-adv-x="421" 
d="M281 440c0 -16.667 -5.83301 -30.667 -17.5 -42s-25.167 -17 -40.5 -17c-16.667 0.666992 -30.667 6.5 -42 17.5s-17 24.833 -17 41.5l-41 949c0 26 9.83301 48.167 29.5 66.5s42.5 27.5 68.5 27.5c26.667 0 50.167 -9.16699 70.5 -27.5s30.5 -39.833 30.5 -64.5zM103 94
c0 30 10.668 55.5 32.001 76.5s46.666 31.5 75.999 31.5c26 0 48.667 -8.16699 68 -24.5s31.666 -36.5 36.999 -60.5c1.33301 -5.33301 2 -13 2 -23c0 -29.333 -10.5 -54.5 -31.5 -75.5s-46.167 -31.5 -75.5 -31.5c-26 0 -48.667 8 -68 24s-31.666 36.333 -36.999 61
c-2 6.66699 -3 14 -3 22z" />
    <glyph glyph-name="quotedbl" unicode="&#x22;" horiz-adv-x="690" 
d="M442 1092l-19.998 374c0 24 7.16699 42.667 21.5 56s31.166 20 50.499 20h4c17.333 0 32.5 -4.83301 45.5 -14.5s21.5 -23.5 25.5 -41.5c1.33301 -4 2 -10.667 2 -20l-20 -374c-0.666992 -14.667 -6.66699 -26.334 -18 -35.001s-23.666 -13 -36.999 -13
c-12.667 0 -23.834 3.33301 -33.501 10s-15.834 16.334 -18.501 29.001c0 0.666992 -0.333008 2 -1 4s-1 3.66699 -1 5zM150.002 1092l-20.999 374c0 24 7.16699 42.667 21.5 56s31.166 20 50.499 20h4c16.667 0 31.834 -4.83301 45.501 -14.5s22.5 -23.5 26.5 -41.5
c1.33301 -8 2 -14.667 2 -20l-21 -374c-0.666992 -14.667 -6.66699 -26.334 -18 -35.001s-23.666 -13 -36.999 -13c-12.667 0 -23.834 3.33301 -33.501 10s-15.834 16.334 -18.501 29.001c-0.666992 2 -1 5 -1 9z" />
    <glyph glyph-name="numbersign" unicode="#" horiz-adv-x="1589" 
d="M969 547v338h-342v-338h342zM1118 406v-353h-149v353h-342v-353h-150v353h-348v141h348v338h-348v139h348v379h150v-379h342v379h149v-379h361v-139h-361v-338h361v-141h-361z" />
    <glyph glyph-name="dollar" unicode="$" horiz-adv-x="1017" 
d="M453 1537l128.996 -0.00390625v-126c138.667 -10.667 256.667 -91.667 354 -243l-125 -80c-23.333 43.333 -54.833 81.833 -94.5 115.5s-84.5 53.834 -134.5 60.501v-489c38.667 -16 76.5 -30 113.5 -42s72.333 -27.833 106 -47.5s63.167 -41.667 88.5 -66
s45.5 -56.666 60.5 -96.999s22.5 -86.833 22.5 -139.5c0 -109.333 -35.167 -201.666 -105.5 -276.999s-165.5 -119.333 -285.5 -132v-129h-127v129c-54 4.66699 -102 14 -144 28s-80 34.333 -114 61s-63.667 55.334 -89 86.001s-53 69.667 -83 117l135 80l43 -65
c10.667 -15.333 25.834 -34.333 45.501 -57s38.334 -40 56.001 -52s39.667 -23.333 66 -34s54.5 -17.667 84.5 -21v555c-55.333 13.333 -103.666 29 -144.999 47s-79.833 41.5 -115.5 70.5s-63 65.5 -82 109.5s-28.5 94.667 -28.5 152c0 103.333 35.333 187.333 106 252
s158.334 100 263.001 106v128zM454.996 816.996v452.999c-62 -8 -112.333 -31.5 -151 -70.5s-58 -88.5 -58 -148.5c0 -38 5 -70.5 15 -97.5s25 -49.167 45 -66.5s41.5 -31.166 64.5 -41.499s51.167 -19.833 84.5 -28.5zM581.996 629.995v-511.001
c72 12 128.167 41.333 168.5 88s60.5 105.334 60.5 176.001c0 56 -19 105.333 -57 148s-95.333 75.667 -172 99z" />
    <glyph glyph-name="percent" unicode="%" horiz-adv-x="1402" 
d="M891 373c0 -15.333 1.33496 -28.333 4.00195 -39c7.33301 -34 23.166 -61.667 47.499 -83s54.166 -32 89.499 -32c40.667 0 75.5 14.667 104.5 44s43.5 66 43.5 110c0 12 -1.33301 22.333 -4 31c-7.33301 34 -24.166 62.167 -50.499 84.5s-57.5 33.5 -93.5 33.5
c-38.667 0 -71.834 -14.833 -99.501 -44.5s-41.5 -64.5 -41.5 -104.5zM762.002 373c0 74.667 26.5 138.333 79.5 191s117.167 79 192.5 79c65.333 0 123.166 -20.333 173.499 -61s82.166 -91.667 95.499 -153c4 -18 6 -36.667 6 -56
c0 -74.667 -26.833 -138.167 -80.5 -190.5s-118.5 -78.5 -194.5 -78.5c-65.333 0 -122.666 20 -171.999 60s-80.666 90.667 -93.999 152c-4 18.667 -6 37.667 -6 57zM231.002 1077c0 -9.33301 1.33301 -22 4 -38c8 -34 24.333 -61.667 49 -83s55 -32 91 -32
c40.667 0 75.334 14.5 104.001 43.5s43 65.5 43 109.5c0 10 -1 20.667 -3 32c-7.33301 33.333 -24.333 61.333 -51 84s-57.667 34 -93 34c-38.667 0 -72.334 -15 -101.001 -45s-43 -65 -43 -105zM104.002 1077c0 75.333 26.5 139.333 79.5 192s117.5 79 193.5 79
c65.333 0 123 -20.333 173 -61s81.667 -92 95 -154c4 -18 6 -36.667 6 -56c0 -74.667 -26.833 -138 -80.5 -190s-118.167 -78 -193.5 -78c-65.333 0 -122.833 20 -172.5 60s-81.167 90.667 -94.5 152c-4 18 -6 36.667 -6 56zM424.002 136.999h-150l721 1182h144z" />
    <glyph glyph-name="ampersand" unicode="&#x26;" horiz-adv-x="1241" 
d="M811 1200c-26 50.667 -57.335 88.6689 -94.002 114.002s-86.667 38 -150 38c-66 0 -122 -21.5 -168 -64.5s-69 -98.833 -69 -167.5c0 -70 24.333 -128 73 -174s103.334 -69 164.001 -69h101v-142h-97c-95.333 0 -171.333 -26.333 -228 -79s-85 -128 -85 -226
c0 -96 30.667 -172.833 92 -230.5s131.666 -86.5 210.999 -86.5c82.667 0 151.834 29.5 207.501 88.5s83.5 127.833 83.5 206.5h-195v139h502v-141h-141c0 -34.667 -5.5 -71.167 -16.5 -109.5s-28.833 -77 -53.5 -116s-54.167 -74 -88.5 -105s-77.5 -56.167 -129.5 -75.5
s-108.333 -29 -169 -29c-60 0 -118 12 -174 36s-105.167 56.167 -147.5 96.5s-76.166 89.166 -101.499 146.499s-38 117.333 -38 180c0 53.333 9 103.666 27 150.999s40.667 86.5 68 117.5s55.833 56.333 85.5 76s57.834 32.5 84.501 38.5
c-54.667 23.333 -100.5 60.833 -137.5 112.5s-55.5 116.5 -55.5 194.5c0 64 15.833 124.167 47.5 180.5s78.167 102.5 139.5 138.5s130.666 54 207.999 54c87.333 0 163.833 -21.333 229.5 -64s115.5 -97 149.5 -163z" />
    <glyph glyph-name="quotesingle" unicode="'" horiz-adv-x="382" 
d="M150 1092l-20.999 374c0 24 7.16699 42.667 21.5 56s31.166 20 50.499 20h4c16.667 0 31.834 -4.83301 45.501 -14.5s22.5 -23.5 26.5 -41.5c1.33301 -8 2 -14.667 2 -20l-21 -374c-0.666992 -14.667 -6.66699 -26.334 -18 -35.001s-23.666 -13 -36.999 -13
c-12.667 0 -23.834 3.33301 -33.501 10s-15.834 16.334 -18.501 29.001c-0.666992 2 -1 5 -1 9z" />
    <glyph glyph-name="parenleft" unicode="(" horiz-adv-x="548" 
d="M279 -84c-73.333 112.667 -131.333 239.668 -174 381.001s-64 288.666 -64 441.999c0 133.333 20.5 271.833 61.5 415.5s99.833 275.5 176.5 395.5h178c-176 -254.667 -264 -528.334 -264 -821.001c0 -144 24.5 -287.167 73.5 -429.5s112.5 -270.166 190.5 -383.499h-178
z" />
    <glyph glyph-name="parenright" unicode=")" horiz-adv-x="536" 
d="M266 -84l-176.004 -0.000976562c84.667 124.667 149.834 257.834 195.501 399.501s68.5 278.834 68.5 411.501c0 138.667 -24.667 282.167 -74 430.5s-112.666 279.166 -189.999 392.499h176c70.667 -110.667 128.334 -239 173.001 -385s67 -292 67 -438
c0 -140 -20.167 -279.833 -60.5 -419.5s-100.166 -270.167 -179.499 -391.5z" />
    <glyph glyph-name="asterisk" unicode="*" horiz-adv-x="913" 
d="M462 518l-113 -224c-5.33301 -10.667 -13.5 -20 -24.5 -28s-23.5 -12 -37.5 -12s-28 4 -42 12c-25.333 14.667 -38 35.334 -38 62.001c0 14 4 27.667 12 41l135 207l-245 -14c-18.667 0 -36 5.83301 -52 17.5s-24 31.167 -24 58.5c0 22 7 39.833 21 53.5
s32.333 20.5 55 20.5l248 -14l-136 208c-8 14 -12 28 -12 42c0 26 13.333 46.333 40 61c12.667 8 26 12 40 12c28 0 48.667 -13.333 62 -40l111 -219l109 217c13.333 26.667 34 40 62 40c14 0 27.333 -4 40 -12c26.667 -14.667 40 -35 40 -61c0 -14 -4 -28 -12 -42
l-135 -206l247 14c22.667 0 41 -6.83301 55 -20.5s21 -31.5 21 -53.5c0 -27.333 -8 -46.833 -24 -58.5s-33.333 -17.5 -52 -17.5l-244 14l134 -205c8 -13.333 12 -27 12 -41c0 -26.667 -12.667 -47.334 -38 -62.001c-14 -8 -28 -12 -42 -12s-26.5 4 -37.5 12
s-19.167 17.333 -24.5 28z" />
    <glyph glyph-name="plus" unicode="+" horiz-adv-x="894" 
d="M78 711h307v311h141v-311h308v-142h-308v-311h-141v311h-307v142z" />
    <glyph glyph-name="comma" unicode="," horiz-adv-x="399" 
d="M318 94c0 -29.333 -3.16699 -58.667 -9.5 -88s-15.666 -56.833 -27.999 -82.5s-22.833 -46.334 -31.5 -62.001s-19.667 -33.5 -33 -53.5l-21 -29l-56 31c48 68.667 72 128 72 178c-26 0 -48.667 7.83301 -68 23.5s-31.666 35.834 -36.999 60.501c-2 6.66699 -3 14 -3 22
c0 30 10.667 55.5 32 76.5s46.666 31.5 75.999 31.5c26 0 48.667 -8.16699 68 -24.5s31.666 -36.5 36.999 -60.5c1.33301 -5.33301 2 -13 2 -23z" />
    <glyph glyph-name="hyphen" unicode="-" horiz-adv-x="866" 
d="M109 705h677v-142h-677v142z" />
    <glyph glyph-name="period" unicode="." horiz-adv-x="405" 
d="M103 94c0 30 10.668 55.5 32.001 76.5s46.666 31.5 75.999 31.5c26 0 48.667 -8.16699 68 -24.5s31.666 -36.5 36.999 -60.5c1.33301 -5.33301 2 -13 2 -23c0 -29.333 -10.5 -54.5 -31.5 -75.5s-46.167 -31.5 -75.5 -31.5c-26 0 -48.667 8 -68 24
s-31.666 36.333 -36.999 61c-2 6.66699 -3 14 -3 22z" />
    <glyph glyph-name="slash" unicode="/" horiz-adv-x="808" 
d="M135 0h-158l717 1544h158z" />
    <glyph glyph-name="zero" unicode="0" 
d="M100 727c0 102.667 10.999 200.171 32.999 292.504s53.167 173.666 93.5 243.999s91.166 126.166 152.499 167.499s129 62 203 62c110 0 202.833 -44 278.5 -132s128.834 -204.667 159.501 -350c19.333 -90.667 29 -185.334 29 -284.001
c0 -138 -18.167 -263.5 -54.5 -376.5s-91.166 -204.5 -164.499 -274.5s-159 -105 -257 -105c-112 0 -206.5 44.167 -283.5 132.5s-130.833 205.166 -161.5 350.499c-18.667 88 -28 179 -28 273zM257.999 727.004c0 -90 8.66602 -175 25.999 -255
c22.667 -106.667 58.334 -193.167 107.001 -259.5s109.334 -99.5 182.001 -99.5c53.333 0 101.166 18.667 143.499 56s75.666 86.5 99.999 147.5s42.833 126.5 55.5 196.5s19 141.333 19 214c0 94.667 -9.33301 185.334 -28 272.001c-22 104.667 -56.5 189.667 -103.5 255
s-106.167 98 -177.5 98c-53.333 0 -101.333 -19.167 -144 -57.5s-76.667 -88.5 -102 -150.5s-44.666 -128.833 -57.999 -200.5s-20 -143.834 -20 -216.501z" />
    <glyph glyph-name="one" unicode="1" 
d="M582 1206h-158l223 250h92v-1456h-157v1206z" />
    <glyph glyph-name="two" unicode="2" 
d="M262 1110l-138.999 55.002c26 92 81.667 170 167 234s178.333 96 279 96c43.333 0 85 -5.33301 125 -16s78 -27.834 114 -51.501s67.333 -52.334 94 -86.001s47.834 -75.334 63.501 -125.001s23.5 -104.167 23.5 -163.5c0 -34 -4.5 -67.333 -13.5 -100
s-20.5 -62.167 -34.5 -88.5s-31.667 -52.666 -53 -78.999s-41.666 -48.833 -60.999 -67.5s-41.833 -38.334 -67.5 -59.001s-47 -36.834 -64 -48.501l-59 -39.5c-22.333 -14.667 -37.166 -24.667 -44.499 -30c-28 -20 -58.333 -45.333 -91 -76s-65 -64.334 -97 -101.001
s-58.5 -75.167 -79.5 -115.5s-31.5 -76.166 -31.5 -107.499h723v-141h-907c0 62.667 8.66699 123.167 26 181.5s39.333 109.833 66 154.5s60.167 88.834 100.5 132.501s79.166 80.834 116.499 111.501s79.666 62.667 126.999 96c7.33301 5.33301 21.5 15 42.5 29l48.5 33
c11.333 8 27.166 20 47.499 36s36.333 30.167 48 42.5s25 28 40 47s26.5 37.5 34.5 55.5s15 38.667 21 62s9 47.333 9 72c0 92.667 -26.667 166 -80 220s-115.666 81 -186.999 81c-66.667 0 -128.334 -21.167 -185.001 -63.5s-97.334 -102.5 -122.001 -180.5z" />
    <glyph glyph-name="three" unicode="3" horiz-adv-x="1126" 
d="M113 252l154.998 46.999c25.333 -54.667 64.333 -99.334 117 -134.001s106.667 -52 162 -52c92.667 0 171.167 28.333 235.5 85s96.5 132 96.5 226c0 48.667 -9.5 92.834 -28.5 132.501s-44.333 72 -76 97s-66.667 44.167 -105 57.5s-77.833 20 -118.5 20h-78v125h98
c64.667 0 120.834 24.667 168.501 74s71.5 111.333 71.5 186c0 66.667 -24.5 123.667 -73.5 171s-105.167 71 -168.5 71h-6c-53.333 0 -100.166 -14.167 -140.499 -42.5s-71.166 -66.833 -92.499 -115.5l-137 64c35.333 70 86.333 126.333 153 169s141 64 223 64
c67.333 0 131.333 -15.667 192 -47s110.5 -76.666 149.5 -135.999s58.5 -125.333 58.5 -198c0 -54.667 -11 -105.667 -33 -153s-46 -83.833 -72 -109.5s-52 -45.167 -78 -58.5c25.333 -7.33301 52 -21.666 80 -42.999s54.833 -47.5 80.5 -78.5s47 -68.5 64 -112.5
s25.5 -89.667 25.5 -137c0 -130.667 -47 -238.834 -141 -324.501s-210 -128.5 -348 -128.5c-83.333 0 -167.333 25.5 -252 76.5s-145.334 119.167 -182.001 204.5z" />
    <glyph glyph-name="four" unicode="4" 
d="M864 1445v-908h189v-140h-189v-397h-157v397h-619l606 1059h13h157v-11zM711 1221l-387 -682h387v682z" />
    <glyph glyph-name="five" unicode="5" 
d="M604 807c-22 0 -42.834 -1.16309 -62.501 -3.49609s-37.667 -6.16602 -54 -11.499s-30.666 -10.333 -42.999 -15s-24.5 -10.834 -36.5 -18.501s-20.833 -13.5 -26.5 -17.5s-13 -9.83301 -22 -17.5s-14.167 -11.834 -15.5 -12.501l-145 75l94 670h672v-141h-541l-66 -428
c60.667 36.667 142.667 55 246 55c108.667 0 202 -32.333 280 -97s128.667 -151.667 152 -261c8.66699 -42 13 -83.667 13 -125c0 -86.667 -17.833 -166.834 -53.5 -240.501s-88.334 -133.334 -158.001 -179.001s-149.5 -68.5 -239.5 -68.5
c-113.333 0 -211.166 32.833 -293.499 98.5s-138.833 152.5 -169.5 260.5l156 28c56 -163.333 158.333 -245 307 -245c88 0 159.167 32.167 213.5 96.5s81.5 148.166 81.5 251.499c0 29.333 -3 57 -9 83c-16 76 -50.5 138.833 -103.5 188.5s-111.833 74.5 -176.5 74.5z" />
    <glyph glyph-name="six" unicode="6" 
d="M879 408c0 17.333 -2.33301 38.333 -7 63c-14.667 68.667 -49.334 125.5 -104.001 170.5s-119.667 67.5 -195 67.5c-85.333 0 -155.666 -30 -210.999 -90s-83 -129 -83 -207c0 -22 2 -43 6 -63c14.667 -68 49.167 -123 103.5 -165s116.5 -63 186.5 -63
c88.667 0 161.5 29.167 218.5 87.5s85.5 124.833 85.5 199.5zM436 827c48.667 20.667 94.3291 30.999 136.996 30.999c108 0 203.667 -33.5 287 -100.5s136 -152.167 158 -255.5c6.66699 -28.667 10 -60 10 -94c0 -52 -11 -103.833 -33 -155.5s-52.167 -98.5 -90.5 -140.5
s-86.666 -76 -144.999 -102s-121.166 -39 -188.499 -39c-110.667 0 -205.167 34.167 -283.5 102.5s-128.166 151.5 -149.499 249.5c-6 28 -9 57 -9 87c0 38.667 3.83301 77.167 11.5 115.5s19.334 75.833 35.001 112.5s29.167 66.334 40.5 89.001s26.833 50.667 46.5 84
s31.167 53 34.5 59l334 584h155z" />
    <glyph glyph-name="seven" unicode="7" 
d="M1079 1456l-555 -1456h-182l516 1307h-747v149h968z" />
    <glyph glyph-name="eight" unicode="8" 
d="M582 113c91.333 0 169.332 31.167 233.999 93.5s97 137.5 97 225.5c0 22.667 -2 44.667 -6 66c-15.333 73.333 -53.5 131.833 -114.5 175.5s-129.833 65.5 -206.5 65.5c-93.333 0 -170.666 -27.5 -231.999 -82.5s-92 -129.833 -92 -224.5c0 -20 2.33301 -42.667 7 -68
c16 -74 53.333 -134.333 112 -181s125.667 -70 201 -70zM331.999 1124c0 -20 1.99707 -39.666 5.99707 -58.999c12 -57.333 40.333 -102.333 85 -135s99 -49 163 -49c74 0 134.5 21.667 181.5 65s70.5 102.666 70.5 177.999c0 18.667 -2 36.667 -6 54
c-11.333 54 -38.666 97.167 -81.999 129.5s-98.666 48.5 -165.999 48.5c-79.333 0 -141.166 -22 -185.499 -66s-66.5 -99.333 -66.5 -166zM583.996 1497c102 0 190.001 -27.5 264.001 -82.5s120.333 -126.167 139 -213.5c5.33301 -21.333 8 -47 8 -77
c0 -138 -62.667 -243.667 -188 -317c56.667 -26 109.667 -63.667 159 -113s81.666 -110 96.999 -182c5.33301 -26.667 8 -53.334 8 -80.001c0 -86 -22.5 -164.5 -67.5 -235.5s-104.833 -126.333 -179.5 -166s-155.334 -59.5 -242.001 -59.5
c-114 0 -214.667 34.167 -302 102.5s-142.666 155.833 -165.999 262.5c-6.66699 34.667 -10 66.667 -10 96c0 52 8.5 100.333 25.5 145s39.333 81.834 67 111.501s55 54 82 73s54.167 34.167 81.5 45.5c-98 57.333 -157 134 -177 230c-6 26 -9 55 -9 87
c0 106 39 194.667 117 266s175.667 107 293 107z" />
    <glyph glyph-name="nine" unicode="9" 
d="M293 1053c0 -23.333 2.33398 -44.668 7.00098 -64.001c14.667 -68 49.167 -124.5 103.5 -169.5s119.166 -67.5 194.499 -67.5c86 0 156.667 29.833 212 89.5s83 128.834 83 207.501c0 22.667 -2.33301 43.334 -7 62.001c-14.667 68 -49.167 123.333 -103.5 166
s-116.5 64 -186.5 64c-88 0 -160.5 -29.333 -217.5 -88s-85.5 -125.334 -85.5 -200.001zM735.001 632.998c-48.667 -20.667 -94.3369 -31 -137.004 -31c-108 0 -203.667 33.5 -287 100.5s-136 152.167 -158 255.5c-6.66699 33.333 -10 65 -10 95
c0 41.333 6.83301 83 20.5 125s33.834 81.667 60.501 119s58.167 70.5 94.5 99.5s78.833 52 127.5 69s100 25.5 154 25.5c110.667 0 205.334 -34.333 284.001 -103s128.334 -152 149.001 -250c6 -29.333 9 -58.333 9 -87c0 -38.667 -3.66699 -77 -11 -115
s-19.166 -76 -35.499 -114s-29.5 -67.333 -39.5 -88s-25.833 -49.167 -47.5 -85.5s-33.167 -55.833 -34.5 -58.5l-324 -590h-168z" />
    <glyph glyph-name="colon" unicode=":" horiz-adv-x="423" 
d="M113 823c0 30 10.668 55.5 32.001 76.5s46.666 31.5 75.999 31.5c26 0 48.667 -8.16699 68 -24.5s31.666 -36.5 36.999 -60.5c1.33301 -5.33301 2 -13 2 -23c0 -29.333 -10.5 -54.5 -31.5 -75.5s-46.167 -31.5 -75.5 -31.5c-26 0 -48.667 8 -68 24
s-31.666 36.333 -36.999 61c-2 6.66699 -3 14 -3 22zM113.001 94c0 30 10.668 55.5 32.001 76.5s46.666 31.5 75.999 31.5c26 0 48.667 -8.16699 68 -24.5s31.666 -36.5 36.999 -60.5c1.33301 -5.33301 2 -13 2 -23c0 -29.333 -10.5 -54.5 -31.5 -75.5
s-46.167 -31.5 -75.5 -31.5c-26 0 -48.667 8 -68 24s-31.666 36.333 -36.999 61c-2 6.66699 -3 14 -3 22z" />
    <glyph glyph-name="semicolon" unicode=";" horiz-adv-x="423" 
d="M328 94c0 -29.333 -3.16699 -58.667 -9.5 -88s-15.666 -56.833 -27.999 -82.5s-22.833 -46.334 -31.5 -62.001s-19.667 -33.5 -33 -53.5l-21 -29l-56 31c48 68.667 72 128 72 178c-26 0 -48.667 7.83301 -68 23.5s-31.666 35.834 -36.999 60.501c-2 6.66699 -3 14 -3 22
c0 30 10.667 55.5 32 76.5s46.666 31.5 75.999 31.5c26 0 48.667 -8.16699 68 -24.5s31.666 -36.5 36.999 -60.5c1.33301 -5.33301 2 -13 2 -23zM113 822.999c0 30 10.668 55.5 32.001 76.5s46.666 31.5 75.999 31.5c26 0 48.667 -8.16699 68 -24.5
s31.666 -36.5 36.999 -60.5c1.33301 -5.33301 2 -13 2 -23c0 -29.333 -10.5 -54.5 -31.5 -75.5s-46.167 -31.5 -75.5 -31.5c-26 0 -48.667 8 -68 24s-31.666 36.333 -36.999 61c-2 6.66699 -3 14 -3 22z" />
    <glyph glyph-name="less" unicode="&#x3c;" horiz-adv-x="843" 
d="M592 23l-508 612l508 600h199l-510 -602l510 -610h-199z" />
    <glyph glyph-name="equal" unicode="=" horiz-adv-x="907" 
d="M66 500h800v-142h-800v142zM66 866h800v-141h-800v141z" />
    <glyph glyph-name="greater" unicode="&#x3e;" horiz-adv-x="856" 
d="M291 20h-199l508 613l-508 602h199l506 -600z" />
    <glyph glyph-name="question" unicode="?" horiz-adv-x="985" 
d="M573 501l-0.00292969 -140.997h-157v145c0 30 3.66699 58.333 11 85s15.833 49 25.5 67s23.5 37.167 41.5 57.5s33.667 36.166 47 47.499l54.5 45.5l52.5 44.5l20 18l19.5 18c6.33301 6 12.333 12.167 18 18.5l16.5 19c5.33301 6.33301 10.333 13.166 15 20.499
s8.83398 14.833 12.501 22.5s7 16.167 10 25.5s5.66699 19 8 29s4 21 5 33s1.5 24.667 1.5 38c0 83.333 -25.667 147.833 -77 193.5s-118.333 68.5 -201 68.5c-54.667 0 -105.167 -15 -151.5 -45s-81.5 -65.667 -105.5 -107s-36 -81 -36 -119l-146 25
c12.667 109.333 59.667 201.166 141 275.499s178.333 111.5 291 111.5c57.333 0 112 -8.33301 164 -25s99 -41 141 -73s75.5 -74 100.5 -126s37.5 -110.333 37.5 -175s-12.333 -121.5 -37 -170.5s-57.667 -94.5 -99 -136.5c-17.333 -16.667 -38.166 -34.167 -62.499 -52.5
l-61.5 -47c-16.667 -13 -33.167 -28.167 -49.5 -45.5s-28.666 -37.833 -36.999 -61.5s-12.5 -51.5 -12.5 -83.5zM395.997 94.0029c0 30 10.668 55.5 32.001 76.5s46.666 31.5 75.999 31.5c26 0 48.667 -8.16699 68 -24.5s31.666 -36.5 36.999 -60.5
c1.33301 -5.33301 2 -13 2 -23c0 -29.333 -10.5 -54.5 -31.5 -75.5s-46.167 -31.5 -75.5 -31.5c-26 0 -48.667 8 -68 24s-31.666 36.333 -36.999 61c-2 6.66699 -3 14 -3 22z" />
    <glyph glyph-name="at" unicode="@" horiz-adv-x="1624" 
d="M1176 213l76.9971 -101.997c-132.667 -97.333 -282 -146 -448 -146c-182.667 0 -343.667 57.167 -483 171.5s-227.333 258.5 -264 432.5c-11.333 54.667 -17 108.667 -17 162c0 138.667 34 266.5 102 383.5s160.667 209.667 278 278s245.333 102.5 384 102.5
c90.667 0 178.5 -15.5 263.5 -46.5s159.667 -72.833 224 -125.5s119.333 -114.334 165 -185.001s76.834 -145.667 93.501 -225c9.33301 -44.667 14 -88.334 14 -131.001c0 -50 -9 -98.167 -27 -144.5s-41 -85.166 -69 -116.499s-58.333 -56.333 -91 -75s-64 -28 -94 -28
c-36.667 0 -75 9.5 -115 28.5s-73.333 42.833 -100 71.5c-29.333 -40 -67.5 -71.5 -114.5 -94.5s-96.833 -34.5 -149.5 -34.5c-81.333 0 -153.333 25.667 -216 77s-102.334 116 -119.001 194c-4.66699 21.333 -7 45 -7 71c0 93.333 33.333 173.333 100 240
s147.334 100 242.001 100c78.667 0 147 -25.5 205 -76.5s95 -114.167 111 -189.5c4.66699 -22.667 7 -47.334 7 -74.001c0 -10.667 1.66699 -23.334 5 -38.001c8 -38.667 25.667 -72.667 53 -102s58 -44 92 -44c37.333 0 73 23.833 107 71.5s51 102.167 51 163.5
c0 32.667 -3.66699 66.667 -11 102c-13.333 63.333 -38.5 124.166 -75.5 182.499s-82.167 109.833 -135.5 154.5s-115.666 80.334 -186.999 107.001s-145.333 40 -222 40c-88 0 -171.5 -17.333 -250.5 -52s-146.667 -81 -203 -139s-101 -126.333 -134 -205
s-49.5 -160.334 -49.5 -245.001c0 -43.333 4.66699 -86.666 14 -129.999c30.667 -144 103.834 -264.167 219.501 -360.5s250.167 -144.5 403.5 -144.5c62 0 126.833 11.333 194.5 34s126.5 51.667 176.5 87zM591.997 731.003c0 -14.667 1.66699 -30.333 5 -47
c10.667 -50 35.5 -90.5 74.5 -121.5s83.5 -46.5 133.5 -46.5c60 0 108.167 20.667 144.5 62s54.5 92.333 54.5 153c0 12.667 -1.66699 26.334 -5 41.001c-10 47.333 -33.833 88.166 -71.5 122.499s-78.5 51.5 -122.5 51.5c-56 0 -105.5 -21.167 -148.5 -63.5
s-64.5 -92.833 -64.5 -151.5z" />
    <glyph glyph-name="A" unicode="A" horiz-adv-x="1302" 
d="M659 1214l-204 -593h415zM907 485h-497l-162 -485h-176l524 1456h127l524 -1456h-180z" />
    <glyph glyph-name="B" unicode="B" horiz-adv-x="1179" 
d="M279 705v-563.998h319c46.667 0 88.834 5.5 126.501 16.5s69 25.667 94 44s46.167 40 63.5 65s29.666 51.167 36.999 78.5s11 55.666 11 84.999c0 23.333 -2.33301 44.666 -7 63.999c-12.667 62.667 -46 113.5 -100 152.5s-129 58.5 -225 58.5h-319zM279 1317
l0.00195312 -473h237c55.333 0 103.833 5.5 145.5 16.5s74.167 24.5 97.5 40.5s42.166 35.167 56.499 57.5s23.666 43 27.999 62s6.5 38.5 6.5 58.5c0 19.333 -1.66699 36.333 -5 51c-5.33301 23.333 -14.166 45 -26.499 65s-30.5 39.5 -54.5 58.5s-57.167 34 -99.5 45
s-91.833 16.5 -148.5 16.5c-10 0 -48.833 0.333008 -116.5 1s-107.834 1 -120.501 1zM121.002 1456l394.999 0.000976562c78.667 0 148.334 -8.66699 209.001 -26s109.5 -40.833 146.5 -70.5s66 -61.334 87 -95.001s35.5 -69.834 43.5 -108.501c5.33301 -28 8 -53.667 8 -77
c0 -78 -27.833 -147 -83.5 -207s-112.5 -90 -170.5 -90c48 0 91.667 -8.83301 131 -26.5s71.5 -41.167 96.5 -70.5s45 -59.666 60 -90.999s26.167 -64 33.5 -98c5.33301 -24 8 -48 8 -72c0 -22.667 -1.33301 -45 -4 -67s-8.16699 -47.5 -16.5 -76.5s-19.5 -56 -33.5 -81
s-33.5 -50.167 -58.5 -75.5s-54 -46.833 -87 -64.5s-74.167 -32 -123.5 -43s-104 -16.5 -164 -16.5h-477v1456z" />
    <glyph glyph-name="C" unicode="C" horiz-adv-x="1220" 
d="M1167 293c-16 -42.667 -36.6738 -82.168 -62.0068 -118.501s-56.666 -70.333 -93.999 -102s-82.666 -56.5 -135.999 -74.5s-111.666 -27 -174.999 -27c-79.333 0 -152.333 13.667 -219 41s-123.167 64.833 -169.5 112.5s-85.666 103.5 -117.999 167.5
s-56 132.5 -71 205.5s-22.5 148.833 -22.5 227.5c0 79.333 7.66699 155.833 23 229.5s39.166 143.5 71.499 209.5s71.833 123.333 118.5 172s103.334 87.334 170.001 116.001s139.667 43 219 43c50.667 0 98.5 -6.16699 143.5 -18.5s83.833 -28.5 116.5 -48.5
s62 -43.5 88 -70.5s47.167 -54 63.5 -81s29.5 -54.5 39.5 -82.5l-149 -41c-19.333 60.667 -57.166 109.334 -113.499 146.001s-119.166 55 -188.499 55h-2c-69.333 0 -132.166 -18 -188.499 -54s-102 -84 -137 -144s-61.833 -127 -80.5 -201s-28 -150.667 -28 -230
c0 -80.667 10 -157.834 30 -231.501s48.167 -139 84.5 -196s82.166 -102.333 137.499 -136s116 -50.5 182 -50.5c70.667 0 136.334 21.833 197.001 65.5s101.667 96.167 123 157.5z" />
    <glyph glyph-name="D" unicode="D" horiz-adv-x="1220" 
d="M987 727c0 43.333 -3.33203 86.6689 -9.99902 130.002s-17 87.5 -31 132.5s-33.333 86.667 -58 125s-53.5 72.666 -86.5 102.999s-73.333 54.166 -121 71.499s-99.834 26 -156.501 26h-245v-1174h245c84.667 0 157.5 14 218.5 42s109 68.667 144 122
s60.5 114.5 76.5 183.5s24 148.5 24 238.5zM1153 727.003c0 -102.667 -13.166 -198 -39.499 -286s-63.833 -164.833 -112.5 -230.5s-110.5 -117.167 -185.5 -154.5s-158.5 -56 -250.5 -56h-444v1456h444c91.333 0 174.666 -20.333 249.999 -61s137.333 -95 186 -163
s86.167 -145.5 112.5 -232.5s39.5 -177.833 39.5 -272.5z" />
    <glyph glyph-name="E" unicode="E" horiz-adv-x="1142" 
d="M121 1456h921v-141h-763v-498h720v-141h-720v-535h763v-141h-921v1456z" />
    <glyph glyph-name="F" unicode="F" horiz-adv-x="1146" 
d="M121 1456h921v-141h-763v-498h720v-141h-720v-676h-158v1456z" />
    <glyph glyph-name="G" unicode="G" horiz-adv-x="1363" 
d="M700 -29c-94 0 -179.498 21.168 -256.498 63.501s-140.167 99 -189.5 170s-87.333 151.667 -114 242s-40 185.166 -40 284.499c0 70 7.5 140.167 22.5 210.5s38.833 138.833 71.5 205.5s72 125.667 118 177s102.667 92.666 170 123.999s140.666 47 219.999 47
c106 0 192.833 -20 260.5 -60s125.834 -98.333 174.501 -175l-138 -68c-38.667 54 -80.167 94.5 -124.5 121.5s-101.833 40.5 -172.5 40.5c-68.667 0 -131.5 -19.5 -188.5 -58.5s-103 -89.333 -138 -151s-62 -128.5 -81 -200.5s-28.5 -143 -28.5 -213
c0 -74.667 9.5 -148.167 28.5 -220.5s46 -138.5 81 -198.5s80.667 -108.5 137 -145.5s118.833 -55.5 187.5 -55.5c46.667 0 89.667 7 129 21s72.333 33.167 99 57.5s50 51.333 70 81s35.5 61.667 46.5 96s19.167 67 24.5 98s8 61.167 8 90.5h-393v141h549v-86
c0 -50 -4.5 -99.667 -13.5 -149s-22.333 -98 -40 -146s-41.167 -92.667 -70.5 -134s-62.833 -77.666 -100.5 -108.999s-82.334 -56 -134.001 -74s-107.834 -27 -168.501 -27h-3h-3z" />
    <glyph glyph-name="H" unicode="H" horiz-adv-x="1198" 
d="M121 1456h158v-641h661v641h158v-1456h-158v674h-661v-674h-158v1456z" />
    <glyph glyph-name="I" unicode="I" horiz-adv-x="444" 
d="M154 0v1456h157v-1456h-157z" />
    <glyph glyph-name="J" unicode="J" horiz-adv-x="1140" 
d="M113 535l141 0.000976562c0 -34.667 3.66699 -69.667 11 -105c18 -86 54 -159 108 -219s118 -90 192 -90c61.333 0 115.833 20.833 163.5 62.5s83.167 93.5 106.5 155.5s35 127.333 35 196v921h158v-921c0 -164 -43 -299 -129 -405s-197.333 -159 -334 -159
c-110 0 -203.833 37.833 -281.5 113.5s-129.167 173.5 -154.5 293.5c-10.667 47.333 -16 99.666 -16 156.999z" />
    <glyph glyph-name="K" unicode="K" horiz-adv-x="1239" 
d="M121 1456h158v-754l747 754h193l-648 -653l664 -803h-207l-561 702l-188 -186v-516h-158v1456z" />
    <glyph glyph-name="L" unicode="L" horiz-adv-x="1105" 
d="M121 1456h158v-1315h765v-141h-923v1456z" />
    <glyph glyph-name="M" unicode="M" horiz-adv-x="1562" 
d="M121 0v1456h215l459 -1247l460 1247h207v-1456h-153v1204l-428 -1188h-179l-428 1188v-1204h-153z" />
    <glyph glyph-name="N" unicode="N" horiz-adv-x="1271" 
d="M121 0v1456h153l740 -1161v1161h157v-1456h-145l-747 1190v-1190h-158z" />
    <glyph glyph-name="O" unicode="O" horiz-adv-x="1333" 
d="M1096 725c0 78.667 -7.66602 154.327 -22.999 226.994c-12 55.333 -28.167 106 -48.5 152s-46.166 88.333 -77.499 127s-70 68.834 -116 90.501s-97.667 32.5 -155 32.5c-62 0 -117.667 -13.333 -167 -40s-89.333 -61.167 -120 -103.5s-56.167 -91.666 -76.5 -147.999
s-34.5 -112.333 -42.5 -168s-12 -112.167 -12 -169.5c0 -74 7.33301 -146.667 22 -218c11.333 -54.667 27.166 -104.5 47.499 -149.5s46.166 -86.333 77.499 -124s70.166 -67.167 116.499 -88.5s97.833 -32 154.5 -32c62 0 117.667 12.833 167 38.5
s89.333 58.834 120 99.501s56.334 88.334 77.001 143.001s35.167 109.334 43.5 164.001s12.5 110.334 12.5 167.001zM92.001 724.993c0 67.333 6.33398 135.33 19.001 203.997s34 137.334 64 206.001s66.667 129.334 110 182.001s98.833 95.5 166.5 128.5
s142.5 49.5 224.5 49.5c80.667 0 154 -15.333 220 -46s121.333 -72.5 166 -125.5s81.334 -110.5 110.001 -172.5s50.667 -129 66 -201c16 -77.333 24 -152.333 24 -225c0 -66.667 -6.5 -133.667 -19.5 -201s-34.5 -134.666 -64.5 -201.999s-66.833 -126.666 -110.5 -177.999
s-99.334 -93 -167.001 -125s-142.5 -48 -224.5 -48c-80 0 -153 15 -219 45s-121.333 71 -166 123s-81.334 108.667 -110.001 170s-50.667 127.666 -66 198.999c-15.333 70.667 -23 143 -23 217z" />
    <glyph glyph-name="P" unicode="P" horiz-adv-x="1099" 
d="M279 774h206c256.667 0 385 91 385 273c0 23.333 -2 43.333 -6 60c-6 27.333 -16.333 52.5 -31 75.5s-35.834 45 -63.501 66s-65.667 37.333 -114 49s-105.166 17.5 -170.499 17.5h-206v-541zM121 1456h158.002h206c153.333 0 276.166 -29.333 368.499 -88
s149.166 -137.334 170.499 -236.001c5.33301 -30 8 -58.333 8 -85c0 -58 -11 -111.667 -33 -161s-54.667 -93.166 -98 -131.499s-100.5 -68.5 -171.5 -90.5s-152.5 -33 -244.5 -33h-206v-631h-158v1456z" />
    <glyph glyph-name="Q" unicode="Q" horiz-adv-x="1370" 
d="M1104 725c0 76 -7.33301 149.33 -22 219.997c-12 57.333 -28.833 109.5 -50.5 156.5s-48.667 90 -81 129s-72.166 69.333 -119.499 91s-99.666 32.5 -156.999 32.5c-66.667 0 -127 -17.5 -181 -52.5s-97.833 -82.167 -131.5 -141.5s-59.334 -126.166 -77.001 -200.499
s-26.5 -152.5 -26.5 -234.5c0 -72.667 7.33301 -142.334 22 -209.001c11.333 -54.667 27.166 -104.667 47.499 -150s46.666 -87.666 78.999 -126.999s72.833 -70.166 121.5 -92.499s103.334 -33.5 164.001 -33.5c36 0 74.5 6.83301 115.5 20.5s72.833 31.834 95.5 54.501
l-188 142l88 116l198 -149c68.667 96 103 238.667 103 428zM92 724.997c0 67.333 6.66992 135.331 20.0029 203.998s35.166 137.334 65.499 206.001s67.333 129.334 111 182.001s99 95.5 166 128.5s140.833 49.5 221.5 49.5c65.333 0 126.5 -10.5 183.5 -31.5
s106.167 -48.833 147.5 -83.5s78.333 -76 111 -124s59.167 -97.833 79.5 -149.5s36.5 -106.167 48.5 -163.5c16 -74 24 -146.667 24 -218c0 -104 -14.167 -202.667 -42.5 -296s-63.5 -167.333 -105.5 -222l166 -121l-90 -117l-172 127
c-50.667 -40 -101.334 -70.833 -152.001 -92.5s-112.667 -32.5 -186 -32.5c-66.667 0 -128.5 10 -185.5 30s-106.333 46.833 -148 80.5s-78.834 74 -111.501 121s-59.167 95.667 -79.5 146s-36.5 103.833 -48.5 160.5c-15.333 70 -23 142 -23 216z" />
    <glyph glyph-name="R" unicode="R" horiz-adv-x="1101" 
d="M279 774l206 0.000976562c62.667 0 117.667 5.66699 165 17s84.666 25.833 111.999 43.5s49.333 39.167 66 64.5s27.834 49.666 33.501 72.999s8.5 48.333 8.5 75c0 82.667 -31 148 -93 196s-159.333 72 -292 72h-206v-541zM923 0.000976562l-428.999 630.999h-215v-631
h-158v1456h158h206c161.333 0 293.166 -36.167 395.499 -108.5s153.5 -172.5 153.5 -300.5c0 -99.333 -33 -185.666 -99 -258.999s-154.333 -120 -265 -140l434 -648h-181z" />
    <glyph glyph-name="S" unicode="S" horiz-adv-x="1079" 
d="M45 327l170.002 30.999c14 -58 52.333 -113.333 115 -166s132.334 -79 209.001 -79c94 0 174.5 24 241.5 72s100.5 110 100.5 186c0 27.333 -4.83301 53.666 -14.5 78.999s-21.834 47.666 -36.501 66.999s-33.834 38.5 -57.501 57.5s-45.667 35 -66 48
s-45.5 26.5 -75.5 40.5s-54.167 24.833 -72.5 32.5l-69 27.5c-27.667 10.667 -46.167 18 -55.5 22c-24.667 10 -45.834 19.167 -63.501 27.5s-38.5 19.333 -62.5 33s-44.333 27.334 -61 41.001s-34 30.667 -52 51s-32.5 41.666 -43.5 63.999s-20 48.5 -27 78.5
s-10.5 62 -10.5 96c0 109.333 40.667 196.5 122 261.5s182.333 97.5 303 97.5c114.667 0 212.334 -28.333 293.001 -85s134.667 -128.667 162 -216l-152 -25c-15.333 48 -51 90.833 -107 128.5s-121.333 56.5 -196 56.5c-76.667 0 -139.667 -20.667 -189 -62
s-74 -93.333 -74 -156c0 -24 3 -46.333 9 -67s13.667 -38.667 23 -54s22.333 -30.166 39 -44.499s32.5 -26.333 47.5 -36s34.333 -20 58 -31s44.167 -19.833 61.5 -26.5l67.5 -26.5l66.5 -26.5c26.667 -11.333 50.667 -22.166 72 -32.499s46 -23.666 74 -39.999
s52.5 -33 73.5 -50s42.5 -37.5 64.5 -61.5s40 -49 54 -75s25.5 -56 34.5 -90s13.5 -69.667 13.5 -107c0 -86.667 -22.833 -160.5 -68.5 -221.5s-105 -105.5 -178 -133.5s-155.833 -42 -248.5 -42c-127.333 0 -231.833 32.667 -313.5 98s-141.834 151.333 -180.501 258z" />
    <glyph glyph-name="T" unicode="T" horiz-adv-x="1243" 
d="M88 1456h1092v-141h-457v-1315h-158v1315h-477v141z" />
    <glyph glyph-name="U" unicode="U" horiz-adv-x="1265" 
d="M1004 1456h161.001v-811c0 -211.333 -46 -376.5 -138 -495.5s-220 -178.5 -384 -178.5c-130.667 0 -239.167 38.5 -325.5 115.5s-144.5 186.167 -174.5 327.5c-14.667 68.667 -22 145.667 -22 231v811h162v-811c0 -76 6.33301 -142.667 19 -200
c23.333 -110.667 65.666 -193.667 126.999 -249s132.666 -83 213.999 -83c50 0 96.333 10.5 139 31.5s80.834 52.5 114.501 94.5s60 97.667 79 167s28.5 149 28.5 239v811z" />
    <glyph glyph-name="V" unicode="V" horiz-adv-x="1245" 
d="M1022 1456h164l-441 -1456h-219l-446 1456h170l385 -1288z" />
    <glyph glyph-name="W" unicode="W" horiz-adv-x="1576" 
d="M84 1456h160l184 -1274l274 1237h195l274 -1237l185 1274h160l-230 -1456h-219l-266 1229l-266 -1229h-224z" />
    <glyph glyph-name="X" unicode="X" horiz-adv-x="1214" 
d="M74 1456h182l362 -606l355 606h182l-453 -727l459 -729h-190l-353 586l-360 -586h-178l455 729z" />
    <glyph glyph-name="Y" unicode="Y" horiz-adv-x="1179" 
d="M76 1456h168l356 -600l356 600h168l-446 -708v-748h-158v748z" />
    <glyph glyph-name="Z" unicode="Z" horiz-adv-x="1325" 
d="M129 1456h1104l-864 -1315h876v-141h-1145l873 1315h-844v141z" />
    <glyph glyph-name="bracketleft" unicode="[" horiz-adv-x="626" 
d="M526 -96h-395v1626h395v-141h-245v-1346h245v-139z" />
    <glyph glyph-name="backslash" unicode="\" horiz-adv-x="811" 
d="M690 0l-719 1544h172l717 -1544h-170z" />
    <glyph glyph-name="bracketright" unicode="]" horiz-adv-x="638" 
d="M129 -96v141h246v1344h-246v141h395v-1626h-395z" />
    <glyph glyph-name="asciicircum" unicode="^" horiz-adv-x="927" 
d="M821 1149h-188l-156 213l-158 -211h-186l277 342h131z" />
    <glyph glyph-name="underscore" unicode="_" horiz-adv-x="1241" 
d="M88 -231v141h1090v-141h-1090z" />
    <glyph glyph-name="grave" unicode="`" horiz-adv-x="516" 
d="M355 1160l-242.001 287c-8 11.333 -13 22.333 -15 33c-1.33301 4.66699 -2 9.66699 -2 15c0 24 10.667 43.333 32 58c14 10.667 29.333 16 46 16c22.667 0 42.334 -10.667 59.001 -32l209 -311c4 -8 6.33301 -13.667 7 -17c0.666992 -2.66699 1 -5.66699 1 -9
c0 -19.333 -8 -34.333 -24 -45c-10 -8 -21.333 -12 -34 -12c-14 0 -26.333 5.66699 -37 17z" />
    <glyph glyph-name="a" unicode="a" horiz-adv-x="993" 
d="M489 582c-74 0 -134.333 -23.167 -181 -69.5s-70 -102.5 -70 -168.5c0 -68.667 23.833 -125.5 71.5 -170.5s107.5 -67.5 179.5 -67.5c64 0 119.667 23.167 167 69.5s71 102.5 71 168.5c0 68 -24.5 124.667 -73.5 170s-103.833 68 -164.5 68zM457 717
c69.333 0 129.334 -18.166 180.001 -54.499s80 -70.833 88 -103.5v96c0 94.667 -21.167 168.167 -63.5 220.5s-102.5 78.5 -180.5 78.5c-46 0 -89.333 -7.16699 -130 -21.5s-72.334 -32.833 -95.001 -55.5l-78 104c89.333 72.667 190.333 109 303 109
c110.667 0 202.5 -38.333 275.5 -115s109.5 -183.334 109.5 -320.001v-123v-532h-139v156v2c-1.33301 -13.333 -9.16602 -30.166 -23.499 -50.499s-32.833 -40.833 -55.5 -61.5s-51.334 -38.334 -86.001 -53.001s-70 -22 -106 -22c-108 0 -197 34.333 -267 103
s-105 158.667 -105 270c0 106.667 36.167 195.5 108.5 266.5s160.5 106.5 264.5 106.5z" />
    <glyph glyph-name="b" unicode="b" horiz-adv-x="1044" 
d="M281 1454v-567.999c12.667 30 27 56.833 43 80.5s35.667 46.334 59 68.001s51.666 38.334 84.999 50.001s70.666 17.5 111.999 17.5c67.333 0 127 -15.5 179 -46.5s93.333 -73.333 124 -127s53.667 -113.334 69 -179.001s23 -135.834 23 -210.501
c0 -74 -7.66699 -143.833 -23 -209.5s-38.333 -125.834 -69 -180.501s-72.167 -98 -124.5 -130s-112.5 -48 -180.5 -48c-41.333 0 -78.666 5.83301 -111.999 17.5s-61.666 28.167 -84.999 49.5s-42.5 43.5 -57.5 66.5s-29.167 49.5 -42.5 79.5v-184h-152v1454h152z
M821 539.001c0 133.333 -25.5 237.834 -76.5 313.501s-115.167 113.5 -192.5 113.5s-142.666 -38.333 -195.999 -115s-80 -181.334 -80 -314.001c0 -132 26.667 -236.833 80 -314.5s118.666 -116.5 195.999 -116.5c76.667 0 140.667 38.833 192 116.5s77 183.167 77 316.5z
" />
    <glyph glyph-name="c" unicode="c" horiz-adv-x="921" 
d="M745 809c-12 33.333 -38.0039 66.5049 -78.0039 99.5049s-83.333 49.5 -130 49.5c-84.667 0 -157.167 -39.833 -217.5 -119.5s-90.5 -180.167 -90.5 -301.5c0 -129.333 29.333 -233.5 88 -312.5s131.334 -118.5 218.001 -118.5c28.667 0 56.167 5.83301 82.5 17.5
s48.5 26.5 66.5 44.5s32.5 35 43.5 51s19.833 31 26.5 45l122 -77c-16 -27.333 -34.667 -53 -56 -77s-46.166 -46.833 -74.499 -68.5s-60.666 -38.834 -96.999 -51.501s-74.166 -19 -113.499 -19c-87.333 0 -166.166 25.333 -236.499 76s-125 119.167 -164 205.5
s-58.5 181.166 -58.5 284.499c0 57.333 6.66699 113.166 20 167.499s33.333 105 60 152s58.167 88.167 94.5 123.5s79.166 63.166 128.499 83.499s102 30.5 158 30.5c76 0 142.5 -20.333 199.5 -61s103.5 -93.334 139.5 -158.001z" />
    <glyph glyph-name="d" unicode="d" horiz-adv-x="1044" 
d="M767 1454l152.002 -0.000976562v-1454h-152v184c-13.333 -30 -27.666 -56.5 -42.999 -79.5s-34.5 -45.167 -57.5 -66.5s-51.167 -37.833 -84.5 -49.5s-71 -17.5 -113 -17.5c-54.667 0 -104.334 10.667 -149.001 32s-82 50 -112 86s-55.333 78.5 -76 127.5
s-35.667 100.333 -45 154s-14 109.834 -14 168.501c0 74.667 7.66699 144.834 23 210.501s38.333 125.334 69 179.001s72 96 124 127s111.667 46.5 179 46.5c41.333 0 78.666 -5.83301 111.999 -17.5s61.666 -28.334 84.999 -50.001s43 -44.334 59 -68.001
s30.333 -50.5 43 -80.5v568zM227.002 538.999c0 -133.333 25.667 -238.834 77 -316.501s115.333 -116.5 192 -116.5c77.333 0 142.666 38.833 195.999 116.5s80 182.5 80 314.5c0 132.667 -26.667 237.334 -80 314.001s-118.666 115 -195.999 115
s-141.5 -37.833 -192.5 -113.5s-76.5 -180.167 -76.5 -313.5z" />
    <glyph glyph-name="e" unicode="e" horiz-adv-x="1013" 
d="M257 604l522.002 -0.00195312c-6 96.667 -32.333 179.834 -79 249.501s-107.334 104.5 -182.001 104.5c-50.667 0 -95.834 -18 -135.501 -54s-69.5 -80.167 -89.5 -132.5s-32 -108.166 -36 -167.499zM257.002 468.998c5.33301 -64 17.999 -122.668 37.999 -176.001
s49.5 -97.833 88.5 -133.5s83.833 -53.5 134.5 -53.5c48 0 95.5 12.833 142.5 38.5s81.167 58.5 102.5 98.5l133 -55c-34 -66 -85.833 -118.667 -155.5 -158s-143.834 -59 -222.501 -59c-86.667 0 -162.167 25.5 -226.5 76.5s-112.666 118.833 -144.999 203.5
s-48.5 180 -48.5 286s16.333 200.667 49 284s81 149.666 145 198.999s139.333 74 226 74c64.667 0 123.334 -15.167 176.001 -45.5s95.5 -70.666 128.5 -120.999s58.167 -106.5 75.5 -168.5s26 -126.667 26 -194c0 -7.33301 0.166992 -23.166 0.5 -47.499
s0.5 -40.5 0.5 -48.5h-668z" />
    <glyph glyph-name="f" unicode="f" horiz-adv-x="716" 
d="M416 938l-0.00195312 -938h-152v938h-139v135h138v135c0 40 9.83301 77.667 29.5 113s44.167 64.333 73.5 87s60 40.5 92 53.5s61 19.5 87 19.5c38.667 0 70.834 -6.83301 96.501 -20.5s52.834 -34.167 81.501 -61.5l-109 -105c-9.33301 12 -17 21 -23 27
s-15.667 11.667 -29 17s-29.333 8 -48 8c-26.667 0 -49.5 -8.66699 -68.5 -26s-28.5 -41 -28.5 -71v-176h195v-135h-196z" />
    <glyph glyph-name="g" unicode="g" horiz-adv-x="1021" 
d="M919 -18c0 -66 -11.668 -126.667 -35.001 -182s-54.166 -100.833 -92.499 -136.5s-81.5 -63.334 -129.5 -83.001s-97.667 -29.5 -149 -29.5c-60.667 0 -117.167 10.833 -169.5 32.5s-95.333 49.667 -129 84s-60.5 70.833 -80.5 109.5s-32.333 76.667 -37 114h143
c9.33301 -58 40.333 -106.5 93 -145.5s109.667 -58.5 171 -58.5c69.333 0 130.5 24.333 183.5 73s79.5 117.667 79.5 207v33v184c-13.333 -30 -27.5 -56.5 -42.5 -79.5s-34.167 -45.167 -57.5 -66.5s-51.666 -37.833 -84.999 -49.5s-70.666 -17.5 -111.999 -17.5
c-54.667 0 -104.5 10.667 -149.5 32s-82.5 50 -112.5 86s-55.333 78.5 -76 127.5s-35.667 100.333 -45 154s-14 109.834 -14 168.501c0 74.667 7.66699 144.834 23 210.501s38.333 125.334 69 179.001s72 96 124 127s111.667 46.5 179 46.5
c41.333 0 78.666 -5.83301 111.999 -17.5s61.666 -28.334 84.999 -50.001s43 -44.334 59 -68.001s30.333 -50.5 43 -80.5v187h152v-1073v-18zM226.999 539c0 -133.333 25.667 -238.834 77 -316.501s115.333 -116.5 192 -116.5c77.333 0 142.666 38.833 195.999 116.5
s80 182.5 80 314.5c0 132.667 -26.667 237.334 -80 314.001s-118.666 115 -195.999 115s-141.5 -37.833 -192.5 -113.5s-76.5 -180.167 -76.5 -313.5z" />
    <glyph glyph-name="h" unicode="h" horiz-adv-x="1064" 
d="M281 0l-151.999 0.00195312v1456h152v-564c18.667 59.333 55.167 109.166 109.5 149.499s119.5 60.5 195.5 60.5c54.667 0 104.167 -11 148.5 -33s83.166 -55.333 116.499 -100s59.166 -103.167 77.499 -175.5s27.5 -156.5 27.5 -252.5v-541h-151v541
c0 60 -4.83301 115 -14.5 165s-24.5 94.667 -44.5 134s-47 70 -81 92s-73.667 33 -119 33s-85.166 -11.333 -119.499 -34s-62 -53.834 -83 -93.501s-36.667 -84.5 -47 -134.5s-15.5 -104.333 -15.5 -163v-540z" />
    <glyph glyph-name="i" unicode="i" horiz-adv-x="430" 
d="M131 1333c0 25.333 9.33301 47.333 28 66s40.667 28 66 28c22.667 0 42.5 -7.16699 59.5 -21.5s27.833 -32.166 32.5 -53.499c1.33301 -4 2 -10.333 2 -19c0 -25.333 -9.33301 -47.333 -28 -66s-40.667 -28 -66 -28c-22 0 -41.667 7.16699 -59 21.5
s-28.333 32.166 -33 53.499c-1.33301 8 -2 14.333 -2 19zM150 1073h151v-1073h-151v1073z" />
    <glyph glyph-name="j" unicode="j" horiz-adv-x="468" 
d="M170 1333c0 25.333 9.33301 47.333 28 66s40.667 28 66 28c24.667 0 46.5 -9.16699 65.5 -27.5s28.5 -40.5 28.5 -66.5c0 -25.333 -9.33301 -47.333 -28 -66s-40.667 -28 -66 -28c-24.667 0 -46.5 9.16699 -65.5 27.5s-28.5 40.5 -28.5 66.5zM-119 -346l107.003 101.998
l15 -13.5c4.66699 -4.33301 10 -8.66602 16 -12.999s12.167 -8.16602 18.5 -11.499s13.666 -6 21.999 -8s17.166 -3 26.499 -3c68 0 102 41 102 123v170v1073h152v-1073v-139c0 -42 -7.66699 -80.167 -23 -114.5s-34.333 -62 -57 -83s-47.5 -38.667 -74.5 -53
s-51.5 -24.333 -73.5 -30s-41 -8.5 -57 -8.5c-28 0 -54 5 -78 15s-41.333 19.167 -52 27.5s-25.334 21.5 -44.001 39.5z" />
    <glyph glyph-name="k" unicode="k" horiz-adv-x="944" 
d="M479 616l461 -616h-174l-379 512l-106 -133v-379h-152v1454h152v-872l409 491h174z" />
    <glyph glyph-name="l" unicode="l" horiz-adv-x="430" 
d="M301 207c0 -11.333 1 -21.333 3 -30c10.667 -50 49.334 -75 116.001 -75v-131c-75.333 0 -134.833 12.333 -178.5 37s-71.834 66.667 -84.501 126c-4.66699 24.667 -7 47.667 -7 69v1251h151v-1247z" />
    <glyph glyph-name="m" unicode="m" horiz-adv-x="1533" 
d="M854 0l-151.996 0.00195312v547c0 48 -1.33301 90.333 -4 127s-8.33398 74 -17.001 112s-20.167 69.5 -34.5 94.5s-34 45.333 -59 61s-54.5 23.5 -88.5 23.5c-145.333 0 -218 -138.333 -218 -415v-550h-152v1073h152v-182c12 25.333 22.167 45.833 30.5 61.5
s20.333 34.167 36 55.5s31.667 38 48 50s37.166 22.333 62.499 31s53.333 13 84 13c77.333 0 140.833 -22.833 190.5 -68.5s83.5 -103.5 101.5 -173.5c17.333 69.333 51 127 101 173s111.333 69 184 69c106 0 183.833 -39.833 233.5 -119.5s74.5 -189.5 74.5 -329.5v-653
h-151v543c0 39.333 -1 74.666 -3 105.999s-5.33301 63.666 -10 96.999s-11.834 62 -21.501 86s-21.667 46 -36 66s-32.333 35 -54 45s-46.834 15 -75.501 15c-148 0 -222 -136.333 -222 -409v-549z" />
    <glyph glyph-name="n" unicode="n" horiz-adv-x="1064" 
d="M281 0l-151.999 0.00195312v1073h152v-181c18.667 59.333 55.167 109.166 109.5 149.499s119.5 60.5 195.5 60.5c54.667 0 104.167 -11 148.5 -33s83.166 -55.333 116.499 -100s59.166 -103.167 77.499 -175.5s27.5 -156.5 27.5 -252.5v-541h-151v541
c0 60 -4.83301 115 -14.5 165s-24.5 94.667 -44.5 134s-47 70 -81 92s-73.667 33 -119 33s-85.166 -11.333 -119.499 -34s-62 -53.834 -83 -93.501s-36.667 -84.5 -47 -134.5s-15.5 -104.333 -15.5 -163v-540z" />
    <glyph glyph-name="o" unicode="o" horiz-adv-x="1054" 
d="M102 537c0 79.333 9.5 152.669 28.5 220.002s46.333 126.166 82 176.499s81.5 89.666 137.5 117.999s119 42.5 189 42.5c92 0 171.5 -25 238.5 -75s116.667 -116.333 149 -199s48.5 -177 48.5 -283c0 -107.333 -15.833 -203 -47.5 -287s-81 -151.5 -148 -202.5
s-147.167 -76.5 -240.5 -76.5c-92.667 0 -172.5 25.667 -239.5 77s-116.667 119 -149 203s-48.5 179.333 -48.5 286zM256 537.003c0 -60 5.33008 -115.333 15.9971 -166s27 -96.167 49 -136.5s51.5 -71.833 88.5 -94.5s80.167 -34 129.5 -34c48.667 0 91.5 11.333 128.5 34
s66.5 54.167 88.5 94.5s38.333 85.833 49 136.5s16 106 16 166c0 80.667 -9.16699 151.5 -27.5 212.5s-49.166 111 -92.499 150s-97.333 58.5 -162 58.5c-65.333 0 -119.666 -19.5 -162.999 -58.5s-74.166 -89 -92.499 -150s-27.5 -131.833 -27.5 -212.5z" />
    <glyph glyph-name="p" unicode="p" horiz-adv-x="1044" 
d="M281 1073v-186.999c12.667 30 27 56.833 43 80.5s35.667 46.334 59 68.001s51.666 38.334 84.999 50.001s70.666 17.5 111.999 17.5c67.333 0 127 -15.5 179 -46.5s93.333 -73.333 124 -127s53.667 -113.334 69 -179.001s23 -135.834 23 -210.501
c0 -74 -7.66699 -143.833 -23 -209.5s-38.333 -125.834 -69 -180.501s-72.167 -98 -124.5 -130s-112.5 -48 -180.5 -48c-41.333 0 -78.666 5.83301 -111.999 17.5s-61.666 28.167 -84.999 49.5s-42.5 43.5 -57.5 66.5s-29.167 49.5 -42.5 79.5v-612h-152v1501h152z
M821 539.001c0 133.333 -25.5 237.834 -76.5 313.501s-115.167 113.5 -192.5 113.5s-142.666 -38.333 -195.999 -115s-80 -181.334 -80 -314.001c0 -132 26.667 -236.833 80 -314.5s118.666 -116.5 195.999 -116.5c76.667 0 140.667 38.833 192 116.5s77 183.167 77 316.5z
" />
    <glyph glyph-name="q" unicode="q" horiz-adv-x="1048" 
d="M919 -199c0 -40.667 8.66699 -69.8311 26 -87.498s48 -26.5 92 -26.5v-136c-88 0 -155 19.5 -201 58.5s-69 100.833 -69 185.5v205v184c-35.333 -80.667 -77.666 -136.334 -126.999 -167.001s-107.333 -46 -174 -46s-126 16.167 -178 48.5s-93.167 75.666 -123.5 129.999
s-53.166 114.5 -68.499 180.5s-23 135.667 -23 209c0 74.667 7.66699 144.834 23 210.501s38.333 125.334 69 179.001s72 96 124 127s111.667 46.5 179 46.5c41.333 0 78.666 -5.83301 111.999 -17.5s61.666 -28.334 84.999 -50.001s43 -44.334 59 -68.001
s30.333 -50.5 43 -80.5v187h152v-1073v-199zM227 539.003c0 -133.333 25.667 -238.834 77 -316.501s115.333 -116.5 192 -116.5c77.333 0 142.666 38.833 195.999 116.5s80 182.5 80 314.5c0 132.667 -26.667 237.334 -80 314.001s-118.666 115 -195.999 115
s-141.5 -37.833 -192.5 -113.5s-76.5 -180.167 -76.5 -313.5z" />
    <glyph glyph-name="r" unicode="r" horiz-adv-x="686" 
d="M737 1066l-80.001 -130.999c-32.667 20 -69.667 30 -111 30c-59.333 0 -109.5 -20 -150.5 -60s-70.333 -91 -88 -153s-26.5 -132.667 -26.5 -212v-540h-152v1073h152v-181c18.667 59.333 55.334 109.166 110.001 149.499s119.667 60.5 195 60.5c54.667 0 105 -12 151 -36
z" />
    <glyph glyph-name="s" unicode="s" horiz-adv-x="921" 
d="M469 477c-40 13.333 -73.6689 25.334 -101.002 36.001s-57.833 25.667 -91.5 45s-60.834 39.833 -81.501 61.5s-38.167 48.834 -52.5 81.501s-21.5 68.667 -21.5 108c0 91.333 33.333 162 100 212s149.334 75.667 248.001 77c54 0 102.833 -7.5 146.5 -22.5
s79.167 -34.833 106.5 -59.5s49 -48.834 65 -72.501s28 -47.834 36 -72.501l-146 -30c-36 81.333 -104.667 122 -206 122c-53.333 0 -99.5 -13.167 -138.5 -39.5s-58.5 -63.166 -58.5 -110.499c0 -24 4.83301 -46 14.5 -66s22 -36 37 -48s31.333 -23.167 49 -33.5
s34.834 -17.833 51.501 -22.5s31.667 -10 45 -16c8 -2.66699 22.5 -7.83398 43.5 -15.501l48.5 -17.5c11.333 -4 27.5 -10.333 48.5 -19s37.667 -16.334 50 -23.001s27.5 -15.667 45.5 -27s32.5 -22.333 43.5 -33s22.833 -23.667 35.5 -39s22.5 -31 29.5 -47
s12.833 -34.167 17.5 -54.5s7 -41.833 7 -64.5c0 -91.333 -36 -166.833 -108 -226.5s-158.333 -89.5 -259 -89.5c-101.333 0 -183.166 22.333 -245.499 67s-106.166 104.334 -131.499 179.001l147 28c20 -44.667 47.333 -79 82 -103s82.667 -36 144 -36
c67.333 0 120.333 16 159 48s58 76.333 58 133c0 26.667 -6.33301 50.667 -19 72s-30.834 39.5 -54.501 54.5s-46 27 -67 36s-46.5 18.167 -76.5 27.5z" />
    <glyph glyph-name="t" unicode="t" horiz-adv-x="696" 
d="M244 938h-142v135h142v250h151v-250h197v-135h-197v-723c0 -78 39 -117 117 -117h70v-127h-70c-98.667 0 -168 18.5 -208 55.5s-60 98.5 -60 184.5v727z" />
    <glyph glyph-name="u" unicode="u" horiz-adv-x="1064" 
d="M795 1073l151.999 -0.00195312v-1073h-152v181c-18.667 -59.333 -55.167 -109.166 -109.5 -149.499s-119.5 -60.5 -195.5 -60.5c-54.667 0 -104.167 11 -148.5 33s-83.166 55.333 -116.499 100s-59.166 103.167 -77.499 175.5s-27.5 156.5 -27.5 252.5v541h151v-541
c0 -60 4.83301 -115 14.5 -165s24.5 -94.667 44.5 -134s47 -70 81 -92s73.667 -33 119 -33s85.166 11.333 119.499 34s62 53.834 83 93.501s36.667 84.5 47 134.5s15.5 104.333 15.5 163v540z" />
    <glyph glyph-name="v" unicode="v" horiz-adv-x="1024" 
d="M446 0l-364 1073h160l280 -878l287 878h158l-369 -1073h-152z" />
    <glyph glyph-name="w" unicode="w" horiz-adv-x="1374" 
d="M698 862l-227 -862h-117l-286 1073h153l193 -823l209 815h151l209 -815l193 823h153l-287 -1073h-122z" />
    <glyph glyph-name="x" unicode="x" horiz-adv-x="901" 
d="M870 0h-170l-241 440l-230 -440h-176l314 539l-312 534h170l234 -434l233 434h170l-311 -530z" />
    <glyph glyph-name="y" unicode="y" horiz-adv-x="1064" 
d="M947 -18c0 -65.333 -12.6689 -125.834 -38.002 -181.501s-58.5 -101.334 -99.5 -137.001s-86.667 -63.334 -137 -83.001s-101.166 -29.5 -152.499 -29.5c-142 0 -263 58 -363 174l106 85c68.667 -82 154.334 -123 257.001 -123c32.667 0 64.667 5.83301 96 17.5
s60.666 28.334 87.999 50.001s49.333 51 66 88s25 78.5 25 124.5v214c-18.667 -59.333 -55.167 -109.166 -109.5 -149.499s-119.5 -60.5 -195.5 -60.5c-54.667 0 -104.167 11 -148.5 33s-83.166 55.333 -116.499 100s-59.166 103.167 -77.499 175.5s-27.5 156.5 -27.5 252.5
v541h151v-541c0 -60 4.83301 -115 14.5 -165s24.5 -94.667 44.5 -134s47 -70 81 -92s73.667 -33 119 -33s85.166 11.333 119.499 34s62 53.834 83 93.501s36.667 84.5 47 134.5s15.5 104.333 15.5 163v540h152v-1091z" />
    <glyph glyph-name="z" unicode="z" horiz-adv-x="962" 
d="M342 141h535v-141h-787l565 932h-524v141h776z" />
    <glyph glyph-name="braceleft" unicode="{" horiz-adv-x="747" 
d="M90 729c42.667 13.333 77.998 37.0049 105.998 71.0049s47.5 71.833 58.5 113.5s19.167 87.5 24.5 137.5s7.66602 96.5 6.99902 139.5s0.333008 84.333 3 124s8 68.5 16 86.5c6.66699 13.333 14.667 25.666 24 36.999s18 21 26 29s19.333 15.333 34 22
s25.834 12 33.501 16s21 7.5 40 10.5s31.833 5.33301 38.5 7s21.667 3 45 4s37.5 1.66699 42.5 2s20.5 0.833008 46.5 1.5v-135c-18.667 2.66699 -33 4 -43 4c-28.667 0 -58 -5.33301 -88 -16s-51.333 -25.334 -64 -44.001c-8 -14.667 -12 -48.667 -12 -102v-45
c0 -51.333 -3.16699 -106.833 -9.5 -166.5s-19.5 -120.834 -39.5 -183.501s-45.333 -100.334 -76 -113.001c40 -15.333 71.333 -76 94 -182c20.667 -94.667 31 -197.667 31 -309v-43c0 -41.333 2 -70.333 6 -87c1.33301 -8.66699 3.33301 -15.334 6 -20.001
c12.667 -18 33.834 -32.333 63.501 -43s59.167 -16 88.5 -16c10 0 24.333 1.33301 43 4v-135c-26 0.666992 -41.5 1.16699 -46.5 1.5s-19.167 1 -42.5 2s-38.333 2.33301 -45 4s-19.667 4 -39 7s-32.666 6.5 -39.999 10.5s-18.333 9.33301 -33 16s-26 14 -34 22
s-16.667 17.667 -26 29s-17.333 23.666 -24 36.999c-3.33301 8 -6 16.667 -8 26c-5.33301 26 -9 92.333 -11 199s-9.33301 189 -22 247c-26.667 126.667 -84.667 203.334 -174 230.001z" />
    <glyph glyph-name="bar" unicode="|" horiz-adv-x="368" 
d="M125 0v1454h143v-1454h-143z" />
    <glyph glyph-name="braceright" unicode="}" horiz-adv-x="747" 
d="M678 729c-42.667 -12.667 -78.0039 -36.502 -106.004 -71.502s-47.5 -74.167 -58.5 -117.5s-19.167 -91 -24.5 -143s-7.66602 -100.5 -6.99902 -145.5s-0.333008 -88.167 -3 -129.5s-8 -71 -16 -89c-6.66699 -13.333 -14.667 -25.666 -24 -36.999s-18 -21 -26 -29
s-19.333 -15.333 -34 -22s-25.667 -12 -33 -16s-20.666 -7.5 -39.999 -10.5s-32.333 -5.33301 -39 -7s-21.667 -3 -45 -4s-37.5 -1.66699 -42.5 -2s-20.5 -0.833008 -46.5 -1.5v135c18.667 -2.66699 33 -4 43 -4c29.333 0 58.833 5.33301 88.5 16s50.834 25 63.501 43
c8 15.333 12 51 12 107v43c0 54 3.16699 112.667 9.5 176s19.5 127.833 39.5 193.5s45.333 104.167 76 115.5c-42 16.667 -74.333 78.667 -97 186c-18.667 88.667 -28 181 -28 277v45c0 38 -1.66699 65.333 -5 82c-2.66699 9.33301 -5 16 -7 20
c-12.667 18.667 -34 33.334 -64 44.001s-59.333 16 -88 16c-10 0 -24.333 -1.33301 -43 -4v135c26 -0.666992 41.5 -1.16699 46.5 -1.5s19.167 -1 42.5 -2s38.333 -2.33301 45 -4s19.5 -4 38.5 -7s32.333 -6.5 40 -10.5s18.834 -9.33301 33.501 -16s26 -14 34 -22
s16.667 -17.667 26 -29s17.333 -23.666 24 -36.999c4 -10 6.66699 -19.333 8 -28c5.33301 -24.667 9 -86.334 11 -185.001s9 -175.334 21 -230.001c26 -123.333 84.333 -199.666 175 -228.999z" />
    <glyph glyph-name="asciitilde" unicode="~" horiz-adv-x="735" 
d="M63 764c17.333 13.333 34.1699 27.1689 50.5029 41.502s36.5 27 60.5 38s48 16.5 72 16.5c18 0 36.333 -5.16699 55 -15.5s36 -23 52 -38l48 -44.5c16 -14.667 33.667 -27.167 53 -37.5s38.666 -15.5 57.999 -15.5c21.333 0 43.333 5.16699 66 15.5
s43.167 22.666 61.5 36.999l60.5 45.5v-145c-22 -16.667 -41.833 -32.334 -59.5 -47.001s-37.834 -27 -60.501 -37s-45.334 -15 -68.001 -15c-21.333 0 -42.5 5.16699 -63.5 15.5s-40.167 23 -57.5 38l-50 45c-16 15 -32.5 27.667 -49.5 38s-32.833 15.5 -47.5 15.5
c-24 0 -47 -5 -69 -15s-41.167 -22.167 -57.5 -36.5s-34.5 -29.5 -54.5 -45.5v146z" />
    <glyph glyph-name="exclamdown" unicode="&#xa1;" horiz-adv-x="309" 
d="M69 1013.98c0 16.667 5.83301 30.666 17.5 42.001c11.667 11.334 25.167 17.001 40.5 17.002c16.667 -0.665039 30.667 -6.49707 42 -17.4961s17 -24.832 17 -41.499l41 -948.998c0 -26 -9.83301 -48.167 -29.5 -66.502c-19.667 -18.334 -42.5 -27.502 -68.5 -27.5039
c-26.667 -0.000976562 -50.167 9.16406 -70.5 27.4961s-30.5 39.8311 -30.5 64.498zM247 1359.99c0 -30 -10.668 -55.498 -32.001 -76.499s-46.666 -31.5029 -75.999 -31.5049c-26 -0.00195312 -48.667 8.16309 -68 24.4951c-19.333 16.333 -31.666 36.499 -36.999 60.498
c-1.33301 5.33301 -2 13 -2 23c0 29.333 10.5 54.5 31.5 75.501s46.167 31.5029 75.5 31.5049c26 0.000976562 48.667 -7.99805 68 -23.9971s31.666 -36.332 36.999 -60.999c2 -6.66602 3 -13.999 3 -21.999z" />
    <glyph glyph-name="cent" unicode="&#xa2;" horiz-adv-x="808" 
d="M381 279c-71.333 8.66699 -133.334 37.1689 -186.001 85.502s-87.667 112.166 -105 191.499c-6.66699 29.333 -10 63 -10 101c0 50.667 9.33301 96.667 28 138s43.5 74.833 74.5 100.5s62.5 46.167 94.5 61.5s65.333 27.333 100 36v215h135v-215
c66 -16.667 132.333 -54 199 -112l-90 -95c-53.333 53.333 -115.666 80 -186.999 80c-56.667 0 -106 -20.333 -148 -61s-63 -91.334 -63 -152.001c0 -22 2.33301 -45.667 7 -71c12 -55.333 36.667 -98.5 74 -129.5s82.666 -46.5 135.999 -46.5
c84.667 0 154.334 35.333 209.001 106l90 -90c-40 -64 -114.333 -113.333 -223 -148v-196h-135v201z" />
    <glyph glyph-name="sterling" unicode="&#xa3;" horiz-adv-x="1120" 
d="M311 596l-226.999 -0.00195312v135h238c0 242 21.667 425 65 549s113 186 209 186c148 0 257.333 -99 328 -297l-144 -6c-11.333 46.667 -32.666 86.667 -63.999 120s-71.333 50 -120 50c-20.667 0 -40.667 -22.333 -60 -67s-34.333 -97.667 -45 -159s-16 -119 -16 -173
v-125v-78h359v-135h-365c-8.66699 -123.333 -44.334 -277 -107.001 -461h504c14.667 0.666992 26.334 2 35.001 4s20.667 8.5 36 19.5s30.666 27.167 45.999 48.5l80 -115c-7.33301 -11.333 -16 -21.666 -26 -30.999s-20.333 -16.833 -31 -22.5s-22.334 -10.667 -35.001 -15
s-25.334 -7.66602 -38.001 -9.99902l-39 -7.5c-13.333 -2.66699 -26.666 -4.66699 -39.999 -6h-709c6.66699 28 24 79.667 52 155s53 151.833 75 229.5s35 148.167 39 211.5z" />
    <glyph glyph-name="currency" unicode="&#xa4;" horiz-adv-x="856" 
d="M260 764c0 -14.667 1.33398 -27.334 4.00098 -38.001c8.66699 -41.333 29.5 -75.5 62.5 -102.5s71.167 -40.5 114.5 -40.5c50 0 92.5 17.667 127.5 53s52.5 78 52.5 128c0 14.667 -1.33301 27.334 -4 38.001c-8.66699 41.333 -29.334 75.5 -62.001 102.5
s-70.667 40.5 -114 40.5c-50.667 0 -93.5 -17.667 -128.5 -53s-52.5 -78 -52.5 -128zM616.001 504c-53.333 -36.667 -112.666 -55 -177.999 -55s-124.666 18.333 -177.999 55v-129h-197v196h127c-28.667 38 -48 80.333 -58 127c-4.66699 18.667 -7 40 -7 64
c0 68.667 19.667 130 59 184h-121v197h197v-123c53.333 36.667 112.666 55 177.999 55s124.666 -18.333 177.999 -55v123h197v-197h-121c25.333 -34.667 43 -74 53 -118c4.66699 -24.667 7 -46.667 7 -66c0 -69.333 -22 -133 -66 -191h127v-196h-197v129z" />
    <glyph glyph-name="yen" unicode="&#xa5;" horiz-adv-x="1110" 
d="M471 682h-311v135h258l-344 580h155l324 -566l344 566h156l-373 -580h248v-135h-305v-215h305v-135h-305v-332h-152v332h-311v135h311v215z" />
    <glyph glyph-name="brokenbar" unicode="&#xa6;" horiz-adv-x="305" 
d="M233 645v-645h-143v645h143zM90 788v646h143v-646h-143z" />
    <glyph glyph-name="section" unicode="&#xa7;" horiz-adv-x="686" 
d="M186 958c18.667 6 40.666 8.99902 65.999 8.99902c92 0 177.333 -32.5 256 -97.5s128.667 -147.5 150 -247.5c6.66699 -32 10 -62.667 10 -92c0 -112.667 -31.333 -211.834 -94 -297.501s-137.334 -128.5 -224.001 -128.5c-62 0 -117.5 14.5 -166.5 43.5
s-93.167 76.833 -132.5 143.5l150 10c12 -17.333 31.833 -31.833 59.5 -43.5s52.167 -17.5 73.5 -17.5h4c47.333 0 87.166 18.667 119.499 56s53.833 85.333 64.5 144v2c0 2 -1.66699 3 -5 3s-12.5 -2.16699 -27.5 -6.5s-25.833 -6.5 -32.5 -6.5
c-93.333 0 -178.166 28.5 -254.499 85.5s-125.833 137.5 -148.5 241.5c-7.33301 36.667 -11 74.334 -11 113.001c0 73.333 13 142 39 206s63.333 116 112 156s103.334 60 164.001 60c64.667 0 116.667 -12 156 -36s82.333 -66.667 129 -128l-154 -16
c-11.333 12.667 -28.666 23.334 -51.999 32.001s-44 13 -62 13h-4c-93.333 0 -155 -67 -185 -201zM505.999 581.999c0 13.333 -1.66699 27.667 -5 43c-12 55.333 -41.167 103.5 -87.5 144.5s-100.833 61.5 -163.5 61.5c-22 0 -40.333 -4.66699 -55 -14c0 -12 1 -24 3 -36
c11.333 -54 42.833 -103.167 94.5 -147.5s104.5 -66.5 158.5 -66.5h18c24.667 0 37 5 37 15z" />
    <glyph glyph-name="dieresis" unicode="&#xa8;" horiz-adv-x="794" 
d="M547 838c0 25.333 9.33301 47.332 28 65.999s40.667 28 66 28c22 0 41.667 -7.16699 59 -21.5s28.333 -32.166 33 -53.499c1.33301 -4.66699 2 -11 2 -19c0 -26 -9.33301 -48.333 -28 -67s-40.667 -28 -66 -28c-22 0 -41.667 7.16699 -59 21.5s-28.333 32.5 -33 54.5
c-1.33301 8 -2 14.333 -2 19zM76 835.999c0 25.333 9.33301 47.332 28 65.999s40.667 28 66 28c22 0 41.667 -7.16699 59 -21.5s28.333 -32.166 33 -53.499c1.33301 -4.66699 2 -11 2 -19c0 -26 -9.33301 -48.333 -28 -67s-40.667 -28 -66 -28
c-22 0 -41.667 7.16699 -59 21.5s-28.333 32.5 -33 54.5c-1.33301 4 -2 10.333 -2 19z" />
    <glyph glyph-name="copyright" unicode="&#xa9;" horiz-adv-x="942" 
d="M629 610c-44.667 -44.667 -94.666 -67 -149.999 -67c-49.333 0 -92.833 15.333 -130.5 46s-61.5 69.667 -71.5 117c-3.33301 15.333 -5 30 -5 44c0 56.667 20.167 105.167 60.5 145.5s89.166 60.5 146.499 60.5c60.667 0 110.667 -19.667 150 -59l-78 -82
c-22.667 19.333 -46.667 29 -72 29s-47.333 -9.33301 -66 -28s-28 -40.667 -28 -66c0 -4.66699 0.666992 -11 2 -19c4.66699 -21.333 15.667 -39.333 33 -54s37 -22 59 -22c30.667 0 56 9 76 27zM158.001 750c0 -24.667 2.33496 -47.3311 7.00195 -67.998
c16 -74 53.167 -135.167 111.5 -183.5s125.833 -72.5 202.5 -72.5c88.667 0 164.5 31.667 227.5 95s94.5 139.666 94.5 228.999c0 20 -2.33301 42.667 -7 68c-16 73.333 -53.333 134.166 -112 182.499s-126.334 72.5 -203.001 72.5c-88.667 0 -164.334 -31.5 -227.001 -94.5
s-94 -139.167 -94 -228.5zM41.0029 750.003c0 120.667 42.832 223.831 128.499 309.498s188.834 128.5 309.501 128.5c104.667 0 197 -32.833 277 -98.5s130.667 -148.5 152 -248.5c6.66699 -33.333 10 -63.666 10 -90.999c0 -121.333 -43 -224.833 -129 -310.5
s-189.333 -128.5 -310 -128.5c-104 0 -196 32.833 -276 98.5s-130.667 148.5 -152 248.5c-6.66699 28.667 -10 59.334 -10 92.001z" />
    <glyph glyph-name="guillemotleft" unicode="&#xab;" horiz-adv-x="872" 
d="M653 1118h135l-192 -291l192 -290h-135l-192 290zM252 1118h135l-192 -291l192 -290h-135l-193 290z" />
    <glyph glyph-name="logicalnot" unicode="&#xac;" horiz-adv-x="1026" 
d="M920 545h-136v205h-630v143h766v-348z" />
    <glyph glyph-name="softhyphen" unicode="&#xad;" horiz-adv-x="950" 
d="M109 877h677v-142h-677v142z" />
    <glyph glyph-name="registered" unicode="&#xae;" horiz-adv-x="1189" 
d="M211 750c0 -33.333 3.00195 -64.6689 9.00195 -94.002c10.667 -49.333 29.5 -93.5 56.5 -132.5s58.5 -70.333 94.5 -94s73.667 -41.5 113 -53.5s78.666 -18 117.999 -18c45.333 0 90.833 8.83301 136.5 26.5s87.834 42.667 126.501 75s70 73.833 94 124.5s36 106 36 166
c0 30.667 -3 59.334 -9 86.001c-10.667 50 -30.334 95.333 -59.001 136s-61.667 73 -99 97s-75.5 42.333 -114.5 55s-76.167 19 -111.5 19c-46 0 -91.5 -8.16699 -136.5 -24.5s-86.833 -40.166 -125.5 -71.499s-69.834 -72.833 -93.501 -124.5s-35.5 -109.167 -35.5 -172.5z
M94.002 749.997c0 68 10.5 130.667 31.5 188s48.667 105.333 83 144s73.833 71.667 118.5 99s90.167 47.333 136.5 60s92.5 19 138.5 19c120.667 0 227.667 -37.167 321 -111.5s152.666 -170.166 177.999 -287.499c7.33301 -38 11 -75 11 -111
c0 -97.333 -24.833 -185.5 -74.5 -264.5s-113.167 -139.333 -190.5 -181s-159 -62.5 -245 -62.5c-71.333 0 -140.666 14.167 -207.999 42.5s-127.833 72.833 -181.5 133.5s-89.167 132 -106.5 214c-8 37.333 -12 76.666 -12 117.999zM508.002 800.997l50.999 -0.000976562
c22.667 0 41.834 0.666992 57.501 2s31.5 4 47.5 8s28.167 10.667 36.5 20s12.5 21 12.5 35c0 1.33301 -0.166992 3.33301 -0.5 6s-0.5 4.33398 -0.5 5.00098c-4.66699 22.667 -22.5 37.5 -53.5 44.5s-71.5 10.5 -121.5 10.5h-29v-131zM426.001 1010h82
c75.333 0 139 -9.66699 191 -29s82.333 -49.666 91 -90.999c2 -6.66699 3 -14.667 3 -24c0 -19.333 -3 -36.333 -9 -51s-12.833 -26 -20.5 -34s-19 -15.333 -34 -22s-27 -11.334 -36 -14.001s-22.5 -6 -40.5 -10l162 -239h-100l-142 227l-65 -2v-225h-82v514z" />
    <glyph glyph-name="macron" unicode="&#xaf;" horiz-adv-x="706" 
d="M63 1130h605v-135h-605v135z" />
    <glyph glyph-name="degree" unicode="&#xb0;" horiz-adv-x="598" 
d="M167 1178c0 -12 1 -23.334 3 -34.001c7.33301 -34 24 -61.833 50 -83.5s56.333 -32.5 91 -32.5c40.667 0 74.834 14.5 102.501 43.5s41.5 64.5 41.5 106.5c0 10.667 -1 21.667 -3 33c-7.33301 34 -24 62 -50 84s-56.333 33 -91 33
c-40.667 0 -74.834 -14.667 -102.501 -44s-41.5 -64.666 -41.5 -105.999zM49 1174c0 71.333 25.502 132.167 76.502 182.5s112.833 75.5 185.5 75.5c62.667 0 118 -19.333 166 -58s78.333 -87.667 91 -147c3.33301 -14 5 -31.667 5 -53c0 -72 -25.5 -133.167 -76.5 -183.5
s-112.833 -75.5 -185.5 -75.5c-62.667 0 -117.834 19.333 -165.501 58s-77.834 87.667 -90.501 147c-4 17.333 -6 35.333 -6 54z" />
    <glyph glyph-name="plusminus" unicode="&#xb1;" horiz-adv-x="983" 
d="M150 998h307v311h141v-311h308v-142h-308v-311h-141v311h-307v142zM189 416h677v-142h-677v142z" />
    <glyph glyph-name="acute" unicode="&#xb4;" horiz-adv-x="550" 
d="M105 1232l206 314.002c16 22 36 33 60 33c17.333 0 32.666 -5.66699 45.999 -17c15.333 -10.667 25 -25.334 29 -44.001c0.666992 -4.66699 1 -9 1 -13c0 -16 -5.33301 -31.667 -16 -47l-238 -290c-9.33301 -11.333 -21.666 -17 -36.999 -17
c-13.333 0 -25.333 3.66699 -36 11c-12 9.33301 -19.333 20.666 -22 33.999c-0.666992 3.33301 -1 6.66602 -1 9.99902c0 8.66699 2.66699 17.334 8 26.001z" />
    <glyph glyph-name="mu" unicode="&#xb5;" horiz-adv-x="1003" 
d="M297 74l-0.000976562 -469h-143v1267h145v-458c0 -50.667 4 -94.667 12 -132c24 -114 85.667 -171 185 -171c30.667 0 59 6.5 85 19.5s47.833 30.167 65.5 51.5s32.667 45.5 45 72.5s21.333 54 27 81s8.5 53.167 8.5 78.5v458h143v-872h-143v98
c-30.667 -38 -65.5 -68.333 -104.5 -91s-77.833 -34 -116.5 -34c-29.333 0 -55.5 3.16699 -78.5 9.5s-41.5 14.333 -55.5 24s-27.667 20.5 -41 32.5s-24.666 23.667 -33.999 35z" />
    <glyph glyph-name="paragraph" unicode="&#xb6;" horiz-adv-x="1150" 
d="M645 1260v-512c11.333 0 47.166 -1.5 107.499 -4.5s96.833 -4.5 109.5 -4.5v533c-11.333 0 -47.166 -2 -107.499 -6s-96.833 -6 -109.5 -6zM502 1227c-32 -10.667 -59.835 -21.501 -83.502 -32.501s-48.334 -25.5 -74.001 -43.5s-45.5 -40.167 -59.5 -66.5
s-21 -56.166 -21 -89.499c0 -16 1.66699 -32.333 5 -49c4.66699 -22 13 -41.833 25 -59.5s24.833 -32 38.5 -43s31.334 -21.333 53.001 -31s40.334 -17 56.001 -22s35.834 -10.5 60.501 -16.5v453zM644.998 134.999h217v477c-12 0 -48 1.83301 -108 5.5
s-96.333 5.5 -109 5.5v-488zM501.998 -0.000976562l-0.000976562 643c-40.667 8.66699 -76.667 17.834 -108 27.501s-62.666 21.834 -93.999 36.501s-57.833 31.167 -79.5 49.5s-40.5 40.666 -56.5 66.999s-27.667 55.833 -35 88.5c-5.33301 28 -8 55.667 -8 83
c0 65.333 19.167 124.166 57.5 176.499s90.333 94.5 156 126.5s139.5 56.5 221.5 73.5s169 25.5 261 25.5h197v-1397h-512z" />
    <glyph glyph-name="periodcentered" unicode="&#xb7;" horiz-adv-x="438" 
d="M142 729c0 30 10.668 55.5 32.001 76.5s46.666 31.5 75.999 31.5c26 0 48.667 -8.16699 68 -24.5s31.666 -36.5 36.999 -60.5c1.33301 -5.33301 2 -13 2 -23c0 -29.333 -10.5 -54.5 -31.5 -75.5s-46.167 -31.5 -75.5 -31.5c-26 0 -48.667 8 -68 24
s-31.666 36.333 -36.999 61c-2 6.66699 -3 14 -3 22z" />
    <glyph glyph-name="cedilla" unicode="&#xb8;" horiz-adv-x="473" 
d="M117 -190l28.499 21.502c5.66699 4.33301 15 12.166 28 23.499s22.5 21.833 28.5 31.5s9 18.834 9 27.501c0 3.33301 -0.666992 8.33301 -2 15c-2 11.333 -8 24.666 -18 39.999s-21.667 31.666 -35 48.999l129 56c42.667 -41.333 69.334 -86 80.001 -134
c2.66699 -16 4 -28.667 4 -38c0 -21.333 -4.5 -41.333 -13.5 -60s-22.833 -36.167 -41.5 -52.5s-35 -29.5 -49 -39.5s-33.333 -22.333 -58 -37l-47 -28z" />
    <glyph glyph-name="guillemotright" unicode="&#xbb;" horiz-adv-x="933" 
d="M233 1118l193 -291l-193 -290h-135l193 290l-193 291h135zM635 1118l192 -291l-192 -290h-135l192 290l-192 291h135z" />
    <glyph glyph-name="questiondown" unicode="&#xbf;" horiz-adv-x="954" 
d="M377 902l0.00292969 140.997h157v-145c0 -30 -3.66699 -58.333 -11 -85s-15.833 -49 -25.5 -67s-23.5 -37.167 -41.5 -57.5s-33.667 -36.166 -47 -47.499l-54.5 -45.5l-52.5 -44.5l-20 -18l-19.5 -18c-6.33301 -6 -12.333 -12.167 -18 -18.5l-16.5 -19
c-5.33301 -6.33301 -10.333 -13.166 -15 -20.499s-8.83398 -14.833 -12.501 -22.5s-7 -16.167 -10 -25.5s-5.66699 -19 -8 -29s-4 -21 -5 -33s-1.5 -24.667 -1.5 -38c0 -83.333 25.667 -147.833 77 -193.5s118.333 -68.5 201 -68.5c54.667 0 105.167 15 151.5 45
s81.5 65.667 105.5 107s36 81 36 119l146 -25c-12.667 -109.333 -59.667 -201.166 -141 -275.499s-178.333 -111.5 -291 -111.5c-57.333 0 -112 8.33301 -164 25s-99 41 -141 73s-75.5 74 -100.5 126s-37.5 110.333 -37.5 175s12.333 121.5 37 170.5s57.667 94.5 99 136.5
c17.333 16.667 38.166 34.167 62.499 52.5l61.5 47c16.667 13 33.167 28.167 49.5 45.5s28.666 37.833 36.999 61.5s12.5 51.5 12.5 83.5zM554.003 1309c0 -30 -10.668 -55.5 -32.001 -76.5s-46.666 -31.5 -75.999 -31.5c-26 0 -48.667 8.16699 -68 24.5
s-31.666 36.5 -36.999 60.5c-1.33301 5.33301 -2 13 -2 23c0 29.333 10.5 54.5 31.5 75.5s46.167 31.5 75.5 31.5c26 0 48.667 -8 68 -24s31.666 -36.333 36.999 -61c2 -6.66699 3 -14 3 -22z" />
    <glyph glyph-name="Agrave" unicode="&#xc0;" horiz-adv-x="1292" 
d="M650 1508l-242.001 287c-8 11.333 -13 22.333 -15 33c-1.33301 4.66699 -2 9.66699 -2 15c0 24 10.667 43.333 32 58c14 10.667 29.333 16 46 16c22.667 0 42.334 -10.667 59.001 -32l209 -311c4 -8 6.33301 -13.667 7 -17c0.666992 -2.66699 1 -5.66699 1 -9
c0 -19.333 -8 -34.333 -24 -45c-10 -8 -21.333 -12 -34 -12c-14 0 -26.333 5.66699 -37 17zM668.999 1214l-204 -593h415zM916.999 485h-497l-162 -485h-176l524 1456h127l524 -1456h-180z" />
    <glyph glyph-name="Aacute" unicode="&#xc1;" horiz-adv-x="1292" 
d="M586 1576l206 314.002c16 22 36 33 60 33c17.333 0 32.666 -5.66699 45.999 -17c15.333 -10.667 25 -25.334 29 -44.001c0.666992 -4.66699 1 -9 1 -13c0 -16 -5.33301 -31.667 -16 -47l-238 -290c-9.33301 -11.333 -21.666 -17 -36.999 -17
c-13.333 0 -25.333 3.66699 -36 11c-12 9.33301 -19.333 20.666 -22 33.999c-0.666992 3.33301 -1 6.66602 -1 9.99902c0 8.66699 2.66699 17.334 8 26.001zM669 1214l-204 -593h415zM917 485.002h-497l-162 -485h-176l524 1456h127l524 -1456h-180z" />
    <glyph glyph-name="Acircumflex" unicode="&#xc2;" horiz-adv-x="1292" 
d="M1009 1561h-188l-156 213l-158 -211h-186l277 342h131zM669 1214l-204 -593h415zM917 485h-497l-162 -485h-176l524 1456h127l524 -1456h-180z" />
    <glyph glyph-name="Atilde" unicode="&#xc3;" horiz-adv-x="1292" 
d="M346 1770c17.333 13.333 34.1699 27.1689 50.5029 41.502s36.5 27 60.5 38s48 16.5 72 16.5c18 0 36.333 -5.16699 55 -15.5s36 -23 52 -38l48 -44.5c16 -14.667 33.667 -27.167 53 -37.5s38.666 -15.5 57.999 -15.5c21.333 0 43.333 5.16699 66 15.5
s43.167 22.666 61.5 36.999l60.5 45.5v-145c-22 -16.667 -41.833 -32.334 -59.5 -47.001s-37.834 -27 -60.501 -37s-45.334 -15 -68.001 -15c-21.333 0 -42.5 5.16699 -63.5 15.5s-40.167 23 -57.5 38l-50 45c-16 15 -32.5 27.667 -49.5 38s-32.833 15.5 -47.5 15.5
c-24 0 -47 -5 -69 -15s-41.167 -22.167 -57.5 -36.5s-34.5 -29.5 -54.5 -45.5v146zM669.004 1214l-204 -593h415zM917.004 485.003h-497l-162 -485h-176l524 1456h127l524 -1456h-180z" />
    <glyph glyph-name="Adieresis" unicode="&#xc4;" horiz-adv-x="1292" 
d="M805 1653c0 25.333 9.33301 47.332 28 65.999s40.667 28 66 28c22 0 41.667 -7.16699 59 -21.5s28.333 -32.166 33 -53.499c1.33301 -4.66699 2 -11 2 -19c0 -26 -9.33301 -48.333 -28 -67s-40.667 -28 -66 -28c-22 0 -41.667 7.16699 -59 21.5s-28.333 32.5 -33 54.5
c-1.33301 8 -2 14.333 -2 19zM334 1651c0 25.333 9.33301 47.332 28 65.999s40.667 28 66 28c22 0 41.667 -7.16699 59 -21.5s28.333 -32.166 33 -53.499c1.33301 -4.66699 2 -11 2 -19c0 -26 -9.33301 -48.333 -28 -67s-40.667 -28 -66 -28c-22 0 -41.667 7.16699 -59 21.5
s-28.333 32.5 -33 54.5c-1.33301 4 -2 10.333 -2 19zM669 1214l-204 -593h415zM917 484.998h-497l-162 -485h-176l524 1456h127l524 -1456h-180z" />
    <glyph glyph-name="Aring" unicode="&#xc5;" horiz-adv-x="1292" 
d="M525 1739c0 -12 1 -23.334 3 -34.001c7.33301 -34 24 -61.833 50 -83.5s56.333 -32.5 91 -32.5c40.667 0 74.834 14.5 102.501 43.5s41.5 64.5 41.5 106.5c0 10.667 -1 21.667 -3 33c-7.33301 34 -24 62 -50 84s-56.333 33 -91 33
c-40.667 0 -74.834 -14.667 -102.501 -44s-41.5 -64.666 -41.5 -105.999zM407 1735c0 71.333 25.502 132.167 76.502 182.5s112.833 75.5 185.5 75.5c62.667 0 118 -19.333 166 -58s78.333 -87.667 91 -147c3.33301 -14 5 -31.667 5 -53c0 -72 -25.5 -133.167 -76.5 -183.5
s-112.833 -75.5 -185.5 -75.5c-62.667 0 -117.834 19.333 -165.501 58s-77.834 87.667 -90.501 147c-4 17.333 -6 35.333 -6 54zM669.002 1214l-204 -593h415zM917.002 485h-497l-162 -485h-176l524 1456h127l524 -1456h-180z" />
    <glyph glyph-name="AE" unicode="&#xc6;" horiz-adv-x="1388" 
d="M785 645h-264l-259 -645h-179l591 1456h709v-149h-442v-519h442v-147h-442v-494h442v-147h-598v645zM783 1237v74l-202 -523h204z" />
    <glyph glyph-name="Ccedilla" unicode="&#xc7;" horiz-adv-x="1220" 
d="M574 -299l28.499 21.502c5.66699 4.33301 15 12.166 28 23.499s22.5 21.833 28.5 31.5s9 18.834 9 27.501c0 3.33301 -0.666992 8.33301 -2 15c-2 11.333 -8 24.666 -18 39.999s-21.667 31.666 -35 48.999l129 56c42.667 -41.333 69.334 -86 80.001 -134
c2.66699 -16 4 -28.667 4 -38c0 -21.333 -4.5 -41.333 -13.5 -60s-22.833 -36.167 -41.5 -52.5s-35 -29.5 -49 -39.5s-33.333 -22.333 -58 -37l-47 -28zM1187 293.002c-16 -42.667 -36.6738 -82.168 -62.0068 -118.501s-56.666 -70.333 -93.999 -102
s-82.666 -56.5 -135.999 -74.5s-111.666 -27 -174.999 -27c-79.333 0 -152.333 13.667 -219 41s-123.167 64.833 -169.5 112.5s-85.666 103.5 -117.999 167.5s-56 132.5 -71 205.5s-22.5 148.833 -22.5 227.5c0 79.333 7.66699 155.833 23 229.5s39.166 143.5 71.499 209.5
s71.833 123.333 118.5 172s103.334 87.334 170.001 116.001s139.667 43 219 43c50.667 0 98.5 -6.16699 143.5 -18.5s83.833 -28.5 116.5 -48.5s62 -43.5 88 -70.5s47.167 -54 63.5 -81s29.5 -54.5 39.5 -82.5l-149 -41c-19.333 60.667 -57.166 109.334 -113.499 146.001
s-119.166 55 -188.499 55h-2c-69.333 0 -132.166 -18 -188.499 -54s-102 -84 -137 -144s-61.833 -127 -80.5 -201s-28 -150.667 -28 -230c0 -80.667 10 -157.834 30 -231.501s48.167 -139 84.5 -196s82.166 -102.333 137.499 -136s116 -50.5 182 -50.5
c70.667 0 136.334 21.833 197.001 65.5s101.667 96.167 123 157.5z" />
    <glyph glyph-name="Egrave" unicode="&#xc8;" horiz-adv-x="1146" 
d="M586 1510l-242.001 287c-8 11.333 -13 22.333 -15 33c-1.33301 4.66699 -2 9.66699 -2 15c0 24 10.667 43.333 32 58c14 10.667 29.333 16 46 16c22.667 0 42.334 -10.667 59.001 -32l209 -311c4 -8 6.33301 -13.667 7 -17c0.666992 -2.66699 1 -5.66699 1 -9
c0 -19.333 -8 -34.333 -24 -45c-10 -8 -21.333 -12 -34 -12c-14 0 -26.333 5.66699 -37 17zM130.999 1456h921v-141h-763v-498h720v-141h-720v-535h763v-141h-921v1456z" />
    <glyph glyph-name="Eacute" unicode="&#xc9;" horiz-adv-x="1146" 
d="M457 1582l206 314.002c16 22 36 33 60 33c17.333 0 32.666 -5.66699 45.999 -17c15.333 -10.667 25 -25.334 29 -44.001c0.666992 -4.66699 1 -9 1 -13c0 -16 -5.33301 -31.667 -16 -47l-238 -290c-9.33301 -11.333 -21.666 -17 -36.999 -17
c-13.333 0 -25.333 3.66699 -36 11c-12 9.33301 -19.333 20.666 -22 33.999c-0.666992 3.33301 -1 6.66602 -1 9.99902c0 8.66699 2.66699 17.334 8 26.001zM131 1456h921v-141h-763v-498h720v-141h-720v-535h763v-141h-921v1456z" />
    <glyph glyph-name="Ecircumflex" unicode="&#xca;" horiz-adv-x="1146" 
d="M950 1538h-188l-156 213l-158 -211h-186l277 342h131zM131 1456h921v-141h-763v-498h720v-141h-720v-535h763v-141h-921v1456z" />
    <glyph glyph-name="Edieresis" unicode="&#xcb;" horiz-adv-x="1146" 
d="M737 1655c0 25.333 9.33301 47.332 28 65.999s40.667 28 66 28c22 0 41.667 -7.16699 59 -21.5s28.333 -32.166 33 -53.499c1.33301 -4.66699 2 -11 2 -19c0 -26 -9.33301 -48.333 -28 -67s-40.667 -28 -66 -28c-22 0 -41.667 7.16699 -59 21.5s-28.333 32.5 -33 54.5
c-1.33301 8 -2 14.333 -2 19zM266 1653c0 25.333 9.33301 47.332 28 65.999s40.667 28 66 28c22 0 41.667 -7.16699 59 -21.5s28.333 -32.166 33 -53.499c1.33301 -4.66699 2 -11 2 -19c0 -26 -9.33301 -48.333 -28 -67s-40.667 -28 -66 -28c-22 0 -41.667 7.16699 -59 21.5
s-28.333 32.5 -33 54.5c-1.33301 4 -2 10.333 -2 19zM131 1456h921v-141h-763v-498h720v-141h-720v-535h763v-141h-921v1456z" />
    <glyph glyph-name="Igrave" unicode="&#xcc;" horiz-adv-x="440" 
d="M205 1531l-242.001 287c-8 11.333 -13 22.333 -15 33c-1.33301 4.66699 -2 9.66699 -2 15c0 24 10.667 43.333 32 58c14 10.667 29.333 16 46 16c22.667 0 42.334 -10.667 59.001 -32l209 -311c4 -8 6.33301 -13.667 7 -17c0.666992 -2.66699 1 -5.66699 1 -9
c0 -19.333 -8 -34.333 -24 -45c-10 -8 -21.333 -12 -34 -12c-14 0 -26.333 5.66699 -37 17zM163.999 0v1456h157v-1456h-157z" />
    <glyph glyph-name="Iacute" unicode="&#xcd;" horiz-adv-x="440" 
d="M193 1617l206 314.002c16 22 36 33 60 33c17.333 0 32.666 -5.66699 45.999 -17c15.333 -10.667 25 -25.334 29 -44.001c0.666992 -4.66699 1 -9 1 -13c0 -16 -5.33301 -31.667 -16 -47l-238 -290c-9.33301 -11.333 -21.666 -17 -36.999 -17
c-13.333 0 -25.333 3.66699 -36 11c-12 9.33301 -19.333 20.666 -22 33.999c-0.666992 3.33301 -1 6.66602 -1 9.99902c0 8.66699 2.66699 17.334 8 26.001zM164 0.00195312v1456h157v-1456h-157z" />
    <glyph glyph-name="Icircumflex" unicode="&#xce;" horiz-adv-x="440" 
d="M585 1550h-188l-156 213l-158 -211h-186l277 342h131zM164 0v1456h157v-1456h-157z" />
    <glyph glyph-name="Idieresis" unicode="&#xcf;" horiz-adv-x="440" 
d="M381 1639c0 25.333 9.33301 47.332 28 65.999s40.667 28 66 28c22 0 41.667 -7.16699 59 -21.5s28.333 -32.166 33 -53.499c1.33301 -4.66699 2 -11 2 -19c0 -26 -9.33301 -48.333 -28 -67s-40.667 -28 -66 -28c-22 0 -41.667 7.16699 -59 21.5s-28.333 32.5 -33 54.5
c-1.33301 8 -2 14.333 -2 19zM-90 1637c0 25.333 9.33301 47.332 28 65.999s40.667 28 66 28c22 0 41.667 -7.16699 59 -21.5s28.333 -32.166 33 -53.499c1.33301 -4.66699 2 -11 2 -19c0 -26 -9.33301 -48.333 -28 -67s-40.667 -28 -66 -28c-22 0 -41.667 7.16699 -59 21.5
s-28.333 32.5 -33 54.5c-1.33301 4 -2 10.333 -2 19zM164 -0.00195312v1456h157v-1456h-157z" />
    <glyph glyph-name="Eth" unicode="&#xd0;" horiz-adv-x="3969" 
d="M326 662l-182 -0.00195312v141h182v653h381c148 0 274 -48.667 378 -146s172.667 -224.666 206 -381.999c13.333 -65.333 20 -132.666 20 -201.999c0 -135.333 -25 -258 -75 -368s-121.333 -197.167 -214 -261.5s-197.667 -96.5 -315 -96.5h-226h-155v662zM483 661.998
l0.000976562 -519h224c129.333 0 236.166 54.167 320.499 162.5s126.5 248.5 126.5 420.5c0 62.667 -6 121.667 -18 177c-26.667 124.667 -78.5 224 -155.5 298s-168.167 111 -273.5 111h-224v-509h300v-141h-300z" />
    <glyph glyph-name="Ntilde" unicode="&#xd1;" horiz-adv-x="1292" 
d="M362 1749c17.333 13.333 34.1699 27.1689 50.5029 41.502s36.5 27 60.5 38s48 16.5 72 16.5c18 0 36.333 -5.16699 55 -15.5s36 -23 52 -38l48 -44.5c16 -14.667 33.667 -27.167 53 -37.5s38.666 -15.5 57.999 -15.5c21.333 0 43.333 5.16699 66 15.5
s43.167 22.666 61.5 36.999l60.5 45.5v-145c-22 -16.667 -41.833 -32.334 -59.5 -47.001s-37.834 -27 -60.501 -37s-45.334 -15 -68.001 -15c-21.333 0 -42.5 5.16699 -63.5 15.5s-40.167 23 -57.5 38l-50 45c-16 15 -32.5 27.667 -49.5 38s-32.833 15.5 -47.5 15.5
c-24 0 -47 -5 -69 -15s-41.167 -22.167 -57.5 -36.5s-34.5 -29.5 -54.5 -45.5v146zM131.004 0.00292969v1456h153l740 -1161v1161h157v-1456h-145l-747 1190v-1190h-158z" />
    <glyph glyph-name="Ograve" unicode="&#xd2;" horiz-adv-x="1329" 
d="M691 1576l-242.001 287c-8 11.333 -13 22.333 -15 33c-1.33301 4.66699 -2 9.66699 -2 15c0 24 10.667 43.333 32 58c14 10.667 29.333 16 46 16c22.667 0 42.334 -10.667 59.001 -32l209 -311c4 -8 6.33301 -13.667 7 -17c0.666992 -2.66699 1 -5.66699 1 -9
c0 -19.333 -8 -34.333 -24 -45c-10 -8 -21.333 -12 -34 -12c-14 0 -26.333 5.66699 -37 17zM1106 725c0 78.667 -7.66602 154.327 -22.999 226.994c-12 55.333 -28.167 106 -48.5 152s-46.166 88.333 -77.499 127s-70 68.834 -116 90.501s-97.667 32.5 -155 32.5
c-62 0 -117.667 -13.333 -167 -40s-89.333 -61.167 -120 -103.5s-56.167 -91.666 -76.5 -147.999s-34.5 -112.333 -42.5 -168s-12 -112.167 -12 -169.5c0 -74 7.33301 -146.667 22 -218c11.333 -54.667 27.166 -104.5 47.499 -149.5s46.166 -86.333 77.499 -124
s70.166 -67.167 116.499 -88.5s97.833 -32 154.5 -32c62 0 117.667 12.833 167 38.5s89.333 58.834 120 99.501s56.334 88.334 77.001 143.001s35.167 109.334 43.5 164.001s12.5 110.334 12.5 167.001zM102 724.993c0 67.333 6.33398 135.33 19.001 203.997
s34 137.334 64 206.001s66.667 129.334 110 182.001s98.833 95.5 166.5 128.5s142.5 49.5 224.5 49.5c80.667 0 154 -15.333 220 -46s121.333 -72.5 166 -125.5s81.334 -110.5 110.001 -172.5s50.667 -129 66 -201c16 -77.333 24 -152.333 24 -225
c0 -66.667 -6.5 -133.667 -19.5 -201s-34.5 -134.666 -64.5 -201.999s-66.833 -126.666 -110.5 -177.999s-99.334 -93 -167.001 -125s-142.5 -48 -224.5 -48c-80 0 -153 15 -219 45s-121.333 71 -166 123s-81.334 108.667 -110.001 170s-50.667 127.666 -66 198.999
c-15.333 70.667 -23 143 -23 217z" />
    <glyph glyph-name="Oacute" unicode="&#xd3;" horiz-adv-x="1329" 
d="M627 1635l206 314.002c16 22 36 33 60 33c17.333 0 32.666 -5.66699 45.999 -17c15.333 -10.667 25 -25.334 29 -44.001c0.666992 -4.66699 1 -9 1 -13c0 -16 -5.33301 -31.667 -16 -47l-238 -290c-9.33301 -11.333 -21.666 -17 -36.999 -17
c-13.333 0 -25.333 3.66699 -36 11c-12 9.33301 -19.333 20.666 -22 33.999c-0.666992 3.33301 -1 6.66602 -1 9.99902c0 8.66699 2.66699 17.334 8 26.001zM1106 725.002c0 78.667 -7.66602 154.327 -22.999 226.994c-12 55.333 -28.167 106 -48.5 152
s-46.166 88.333 -77.499 127s-70 68.834 -116 90.501s-97.667 32.5 -155 32.5c-62 0 -117.667 -13.333 -167 -40s-89.333 -61.167 -120 -103.5s-56.167 -91.666 -76.5 -147.999s-34.5 -112.333 -42.5 -168s-12 -112.167 -12 -169.5c0 -74 7.33301 -146.667 22 -218
c11.333 -54.667 27.166 -104.5 47.499 -149.5s46.166 -86.333 77.499 -124s70.166 -67.167 116.499 -88.5s97.833 -32 154.5 -32c62 0 117.667 12.833 167 38.5s89.333 58.834 120 99.501s56.334 88.334 77.001 143.001s35.167 109.334 43.5 164.001
s12.5 110.334 12.5 167.001zM102.001 724.995c0 67.333 6.33398 135.33 19.001 203.997s34 137.334 64 206.001s66.667 129.334 110 182.001s98.833 95.5 166.5 128.5s142.5 49.5 224.5 49.5c80.667 0 154 -15.333 220 -46s121.333 -72.5 166 -125.5
s81.334 -110.5 110.001 -172.5s50.667 -129 66 -201c16 -77.333 24 -152.333 24 -225c0 -66.667 -6.5 -133.667 -19.5 -201s-34.5 -134.666 -64.5 -201.999s-66.833 -126.666 -110.5 -177.999s-99.334 -93 -167.001 -125s-142.5 -48 -224.5 -48c-80 0 -153 15 -219 45
s-121.333 71 -166 123s-81.334 108.667 -110.001 170s-50.667 127.666 -66 198.999c-15.333 70.667 -23 143 -23 217z" />
    <glyph glyph-name="Ocircumflex" unicode="&#xd4;" horiz-adv-x="1329" 
d="M1030 1563h-188l-156 213l-158 -211h-186l277 342h131zM1106 725c0 78.667 -7.66602 154.327 -22.999 226.994c-12 55.333 -28.167 106 -48.5 152s-46.166 88.333 -77.499 127s-70 68.834 -116 90.501s-97.667 32.5 -155 32.5c-62 0 -117.667 -13.333 -167 -40
s-89.333 -61.167 -120 -103.5s-56.167 -91.666 -76.5 -147.999s-34.5 -112.333 -42.5 -168s-12 -112.167 -12 -169.5c0 -74 7.33301 -146.667 22 -218c11.333 -54.667 27.166 -104.5 47.499 -149.5s46.166 -86.333 77.499 -124s70.166 -67.167 116.499 -88.5
s97.833 -32 154.5 -32c62 0 117.667 12.833 167 38.5s89.333 58.834 120 99.501s56.334 88.334 77.001 143.001s35.167 109.334 43.5 164.001s12.5 110.334 12.5 167.001zM102.001 724.993c0 67.333 6.33398 135.33 19.001 203.997s34 137.334 64 206.001
s66.667 129.334 110 182.001s98.833 95.5 166.5 128.5s142.5 49.5 224.5 49.5c80.667 0 154 -15.333 220 -46s121.333 -72.5 166 -125.5s81.334 -110.5 110.001 -172.5s50.667 -129 66 -201c16 -77.333 24 -152.333 24 -225c0 -66.667 -6.5 -133.667 -19.5 -201
s-34.5 -134.666 -64.5 -201.999s-66.833 -126.666 -110.5 -177.999s-99.334 -93 -167.001 -125s-142.5 -48 -224.5 -48c-80 0 -153 15 -219 45s-121.333 71 -166 123s-81.334 108.667 -110.001 170s-50.667 127.666 -66 198.999c-15.333 70.667 -23 143 -23 217z" />
    <glyph glyph-name="Otilde" unicode="&#xd5;" horiz-adv-x="1329" 
d="M370 1770c17.333 13.333 34.1699 27.1689 50.5029 41.502s36.5 27 60.5 38s48 16.5 72 16.5c18 0 36.333 -5.16699 55 -15.5s36 -23 52 -38l48 -44.5c16 -14.667 33.667 -27.167 53 -37.5s38.666 -15.5 57.999 -15.5c21.333 0 43.333 5.16699 66 15.5
s43.167 22.666 61.5 36.999l60.5 45.5v-145c-22 -16.667 -41.833 -32.334 -59.5 -47.001s-37.834 -27 -60.501 -37s-45.334 -15 -68.001 -15c-21.333 0 -42.5 5.16699 -63.5 15.5s-40.167 23 -57.5 38l-50 45c-16 15 -32.5 27.667 -49.5 38s-32.833 15.5 -47.5 15.5
c-24 0 -47 -5 -69 -15s-41.167 -22.167 -57.5 -36.5s-34.5 -29.5 -54.5 -45.5v146zM1106 725.003c0 78.667 -7.66602 154.327 -22.999 226.994c-12 55.333 -28.167 106 -48.5 152s-46.166 88.333 -77.499 127s-70 68.834 -116 90.501s-97.667 32.5 -155 32.5
c-62 0 -117.667 -13.333 -167 -40s-89.333 -61.167 -120 -103.5s-56.167 -91.666 -76.5 -147.999s-34.5 -112.333 -42.5 -168s-12 -112.167 -12 -169.5c0 -74 7.33301 -146.667 22 -218c11.333 -54.667 27.166 -104.5 47.499 -149.5s46.166 -86.333 77.499 -124
s70.166 -67.167 116.499 -88.5s97.833 -32 154.5 -32c62 0 117.667 12.833 167 38.5s89.333 58.834 120 99.501s56.334 88.334 77.001 143.001s35.167 109.334 43.5 164.001s12.5 110.334 12.5 167.001zM102.005 724.996c0 67.333 6.33398 135.33 19.001 203.997
s34 137.334 64 206.001s66.667 129.334 110 182.001s98.833 95.5 166.5 128.5s142.5 49.5 224.5 49.5c80.667 0 154 -15.333 220 -46s121.333 -72.5 166 -125.5s81.334 -110.5 110.001 -172.5s50.667 -129 66 -201c16 -77.333 24 -152.333 24 -225
c0 -66.667 -6.5 -133.667 -19.5 -201s-34.5 -134.666 -64.5 -201.999s-66.833 -126.666 -110.5 -177.999s-99.334 -93 -167.001 -125s-142.5 -48 -224.5 -48c-80 0 -153 15 -219 45s-121.333 71 -166 123s-81.334 108.667 -110.001 170s-50.667 127.666 -66 198.999
c-15.333 70.667 -23 143 -23 217z" />
    <glyph glyph-name="Odieresis" unicode="&#xd6;" horiz-adv-x="1329" 
d="M811 1672c0 25.333 9.33301 47.332 28 65.999s40.667 28 66 28c22 0 41.667 -7.16699 59 -21.5s28.333 -32.166 33 -53.499c1.33301 -4.66699 2 -11 2 -19c0 -26 -9.33301 -48.333 -28 -67s-40.667 -28 -66 -28c-22 0 -41.667 7.16699 -59 21.5s-28.333 32.5 -33 54.5
c-1.33301 8 -2 14.333 -2 19zM340 1670c0 25.333 9.33301 47.332 28 65.999s40.667 28 66 28c22 0 41.667 -7.16699 59 -21.5s28.333 -32.166 33 -53.499c1.33301 -4.66699 2 -11 2 -19c0 -26 -9.33301 -48.333 -28 -67s-40.667 -28 -66 -28c-22 0 -41.667 7.16699 -59 21.5
s-28.333 32.5 -33 54.5c-1.33301 4 -2 10.333 -2 19zM1106 724.998c0 78.667 -7.66602 154.327 -22.999 226.994c-12 55.333 -28.167 106 -48.5 152s-46.166 88.333 -77.499 127s-70 68.834 -116 90.501s-97.667 32.5 -155 32.5c-62 0 -117.667 -13.333 -167 -40
s-89.333 -61.167 -120 -103.5s-56.167 -91.666 -76.5 -147.999s-34.5 -112.333 -42.5 -168s-12 -112.167 -12 -169.5c0 -74 7.33301 -146.667 22 -218c11.333 -54.667 27.166 -104.5 47.499 -149.5s46.166 -86.333 77.499 -124s70.166 -67.167 116.499 -88.5
s97.833 -32 154.5 -32c62 0 117.667 12.833 167 38.5s89.333 58.834 120 99.501s56.334 88.334 77.001 143.001s35.167 109.334 43.5 164.001s12.5 110.334 12.5 167.001zM102.001 724.991c0 67.333 6.33398 135.33 19.001 203.997s34 137.334 64 206.001
s66.667 129.334 110 182.001s98.833 95.5 166.5 128.5s142.5 49.5 224.5 49.5c80.667 0 154 -15.333 220 -46s121.333 -72.5 166 -125.5s81.334 -110.5 110.001 -172.5s50.667 -129 66 -201c16 -77.333 24 -152.333 24 -225c0 -66.667 -6.5 -133.667 -19.5 -201
s-34.5 -134.666 -64.5 -201.999s-66.833 -126.666 -110.5 -177.999s-99.334 -93 -167.001 -125s-142.5 -48 -224.5 -48c-80 0 -153 15 -219 45s-121.333 71 -166 123s-81.334 108.667 -110.001 170s-50.667 127.666 -66 198.999c-15.333 70.667 -23 143 -23 217z" />
    <glyph glyph-name="multiply" unicode="&#xd7;" horiz-adv-x="833" 
d="M114.98 430.337l215.354 218.782l-221.652 218.159l98.9082 100.483l221.652 -218.159l216.055 219.495l101.204 -99.6104l-216.055 -219.495l221.652 -218.159l-98.9082 -100.483l-221.652 218.16l-215.354 -218.783z" />
    <glyph glyph-name="Oslash" unicode="&#xd8;" horiz-adv-x="2416" 
d="M400 41l-30.9971 -69.998h-152l74 163c-82.667 92.667 -139.667 214.667 -171 366c-16 74 -24 146.667 -24 218c0 54.667 4.33301 110 13 166s22 112.833 40 170.5s42.167 111.5 72.5 161.5s65.5 94.667 105.5 134s88.167 70.333 144.5 93s117.5 34 183.5 34
c81.333 0 154.333 -16.667 219 -50l31 69h152l-69 -151c99.333 -96.667 166.666 -230.667 201.999 -402c16 -72.667 24 -147.667 24 -225c0 -54.667 -4.5 -109.834 -13.5 -165.501s-22.333 -111.834 -40 -168.501s-41.834 -109.5 -72.501 -158.5
s-65.834 -92.667 -105.501 -131s-87.667 -68.5 -144 -90.5s-117.5 -33 -183.5 -33c-96 0 -181 23.333 -255 70zM458.003 170.002c57.333 -39.333 123.001 -59 197.001 -59c59.333 0 112.833 12.667 160.5 38s86.5 58.333 116.5 99s55.167 88 75.5 142
s34.666 108.167 42.999 162.5s12.5 109.5 12.5 165.5c0 77.333 -7.66699 153 -23 227c-23.333 108 -61.333 195.333 -114 262zM356.004 279.002l460.001 1021c-48.667 25.333 -102.334 38 -161.001 38c-59.333 0 -112.833 -13.167 -160.5 -39.5s-86.5 -60.333 -116.5 -102
s-55 -90.334 -75 -146.001s-34.167 -111 -42.5 -166s-12.5 -110.5 -12.5 -166.5c0 -80 7.33301 -153.333 22 -220c19.333 -88.667 48 -161.667 86 -219z" />
    <glyph glyph-name="Ugrave" unicode="&#xd9;" horiz-adv-x="1298" 
d="M672 1531l-242.001 287c-8 11.333 -13 22.333 -15 33c-1.33301 4.66699 -2 9.66699 -2 15c0 24 10.667 43.333 32 58c14 10.667 29.333 16 46 16c22.667 0 42.334 -10.667 59.001 -32l209 -311c4 -8 6.33301 -13.667 7 -17c0.666992 -2.66699 1 -5.66699 1 -9
c0 -19.333 -8 -34.333 -24 -45c-10 -8 -21.333 -12 -34 -12c-14 0 -26.333 5.66699 -37 17zM1014 1456h161.001v-811c0 -211.333 -46 -376.5 -138 -495.5s-220 -178.5 -384 -178.5c-130.667 0 -239.167 38.5 -325.5 115.5s-144.5 186.167 -174.5 327.5
c-14.667 68.667 -22 145.667 -22 231v811h162v-811c0 -76 6.33301 -142.667 19 -200c23.333 -110.667 65.666 -193.667 126.999 -249s132.666 -83 213.999 -83c50 0 96.333 10.5 139 31.5s80.834 52.5 114.501 94.5s60 97.667 79 167s28.5 149 28.5 239v811z" />
    <glyph glyph-name="Uacute" unicode="&#xda;" horiz-adv-x="1298" 
d="M549 1603l206 314.002c16 22 36 33 60 33c17.333 0 32.666 -5.66699 45.999 -17c15.333 -10.667 25 -25.334 29 -44.001c0.666992 -4.66699 1 -9 1 -13c0 -16 -5.33301 -31.667 -16 -47l-238 -290c-9.33301 -11.333 -21.666 -17 -36.999 -17
c-13.333 0 -25.333 3.66699 -36 11c-12 9.33301 -19.333 20.666 -22 33.999c-0.666992 3.33301 -1 6.66602 -1 9.99902c0 8.66699 2.66699 17.334 8 26.001zM1014 1456h161.001v-811c0 -211.333 -46 -376.5 -138 -495.5s-220 -178.5 -384 -178.5
c-130.667 0 -239.167 38.5 -325.5 115.5s-144.5 186.167 -174.5 327.5c-14.667 68.667 -22 145.667 -22 231v811h162v-811c0 -76 6.33301 -142.667 19 -200c23.333 -110.667 65.666 -193.667 126.999 -249s132.666 -83 213.999 -83c50 0 96.333 10.5 139 31.5
s80.834 52.5 114.501 94.5s60 97.667 79 167s28.5 149 28.5 239v811z" />
    <glyph glyph-name="Ucircumflex" unicode="&#xdb;" horiz-adv-x="1298" 
d="M985 1567h-188l-156 213l-158 -211h-186l277 342h131zM1014 1456h161.001v-811c0 -211.333 -46 -376.5 -138 -495.5s-220 -178.5 -384 -178.5c-130.667 0 -239.167 38.5 -325.5 115.5s-144.5 186.167 -174.5 327.5c-14.667 68.667 -22 145.667 -22 231v811h162v-811
c0 -76 6.33301 -142.667 19 -200c23.333 -110.667 65.666 -193.667 126.999 -249s132.666 -83 213.999 -83c50 0 96.333 10.5 139 31.5s80.834 52.5 114.501 94.5s60 97.667 79 167s28.5 149 28.5 239v811z" />
    <glyph glyph-name="Udieresis" unicode="&#xdc;" horiz-adv-x="1298" 
d="M789 1672c0 25.333 9.33301 47.332 28 65.999s40.667 28 66 28c22 0 41.667 -7.16699 59 -21.5s28.333 -32.166 33 -53.499c1.33301 -4.66699 2 -11 2 -19c0 -26 -9.33301 -48.333 -28 -67s-40.667 -28 -66 -28c-22 0 -41.667 7.16699 -59 21.5s-28.333 32.5 -33 54.5
c-1.33301 8 -2 14.333 -2 19zM318 1670c0 25.333 9.33301 47.332 28 65.999s40.667 28 66 28c22 0 41.667 -7.16699 59 -21.5s28.333 -32.166 33 -53.499c1.33301 -4.66699 2 -11 2 -19c0 -26 -9.33301 -48.333 -28 -67s-40.667 -28 -66 -28c-22 0 -41.667 7.16699 -59 21.5
s-28.333 32.5 -33 54.5c-1.33301 4 -2 10.333 -2 19zM1014 1456h161.001v-811c0 -211.333 -46 -376.5 -138 -495.5s-220 -178.5 -384 -178.5c-130.667 0 -239.167 38.5 -325.5 115.5s-144.5 186.167 -174.5 327.5c-14.667 68.667 -22 145.667 -22 231v811h162v-811
c0 -76 6.33301 -142.667 19 -200c23.333 -110.667 65.666 -193.667 126.999 -249s132.666 -83 213.999 -83c50 0 96.333 10.5 139 31.5s80.834 52.5 114.501 94.5s60 97.667 79 167s28.5 149 28.5 239v811z" />
    <glyph glyph-name="Yacute" unicode="&#xdd;" horiz-adv-x="1179" 
d="M578 1582l206 314.002c16 22 36 33 60 33c17.333 0 32.666 -5.66699 45.999 -17c15.333 -10.667 25 -25.334 29 -44.001c0.666992 -4.66699 1 -9 1 -13c0 -16 -5.33301 -31.667 -16 -47l-238 -290c-9.33301 -11.333 -21.666 -17 -36.999 -17
c-13.333 0 -25.333 3.66699 -36 11c-12 9.33301 -19.333 20.666 -22 33.999c-0.666992 3.33301 -1 6.66602 -1 9.99902c0 8.66699 2.66699 17.334 8 26.001zM86 1456h168l356 -600l356 600h168l-446 -708v-748h-158v748z" />
    <glyph glyph-name="Thorn" unicode="&#xde;" horiz-adv-x="1329" 
d="M303 477c58 0 112.333 2.3291 163 6.99609s101.5 13.334 152.5 26.001s94.5 28.834 130.5 48.501s65.167 45.834 87.5 78.501s33.5 70.334 33.5 113.001c0 14 -1.66699 28.667 -5 44c-30.667 144 -218 216 -562 216v-533zM145 1456l157.999 -0.00195312v-306
c431.333 0 670 -107.333 716 -322c5.33301 -25.333 8 -51.333 8 -78c0 -55.333 -9.16699 -105.166 -27.5 -149.499s-44.666 -81.166 -78.999 -110.499s-73.166 -54.333 -116.499 -75s-93.333 -36.5 -150 -47.5s-112.834 -18.833 -168.501 -23.5s-116.5 -7 -182.5 -7v-337
h-158v1456z" />
    <glyph glyph-name="germandbls" unicode="&#xdf;" horiz-adv-x="1212" 
d="M174 1152c36.667 97.333 95.8311 176.169 177.498 236.502s182.834 90.5 303.501 90.5c110 0 205.333 -27.167 286 -81.5s131 -128.833 151 -223.5c5.33301 -28 8 -57 8 -87v-13c0 -37.333 -7.33301 -72.5 -22 -105.5s-33.334 -61.167 -56.001 -84.5
s-48.667 -44.666 -78 -63.999s-57.5 -34.666 -84.5 -45.999s-53.5 -20.333 -79.5 -27c28.667 -7.33301 58.667 -18.333 90 -33s63.833 -33.834 97.5 -57.501s63.5 -53.834 89.5 -90.501s43.667 -76.667 53 -120c4.66699 -19.333 7 -42 7 -68c0 -272 -168.667 -408 -506 -408
c-53.333 0 -115.333 17.667 -186 53l91 123c7.33301 -2.66699 17.666 -7.33398 30.999 -14.001s25.166 -12 35.499 -16s19.833 -6 28.5 -6c42 0 79.667 2.16699 113 6.5s65.833 12.5 97.5 24.5s58 27.833 79 47.5s37.833 45.5 50.5 77.5s19 69.333 19 112
c0 13.333 -1.66699 28.333 -5 45c-16 74 -65.333 135.167 -148 183.5s-171 72.5 -265 72.5h-36c-16.667 0 -30.667 -2 -42 -6v152c10 -2.66699 22 -4 36 -4h42c59.333 0 119 9.83301 179 29.5s111.667 49.5 155 89.5s65 84.667 65 134c0 26 -2.66699 51.333 -8 76
c-27.333 128 -123.333 192 -288 192c-49.333 0 -93.166 -5.83301 -131.499 -17.5s-70.666 -28.667 -96.999 -51s-48 -46.833 -65 -73.5s-32.167 -58.334 -45.5 -95.001c-22 -65.333 -37.667 -163 -47 -293s-15.666 -283 -18.999 -459s-6.66602 -293.667 -9.99902 -353h-148
c8 86.667 14 217 18 391s10.167 327.833 18.5 461.5s23.5 233.5 45.5 299.5z" />
    <glyph glyph-name="agrave" unicode="&#xe0;" horiz-adv-x="1036" 
d="M529 1162l-242.001 287c-8 11.333 -13 22.333 -15 33c-1.33301 4.66699 -2 9.66699 -2 15c0 24 10.667 43.333 32 58c14 10.667 29.333 16 46 16c22.667 0 42.334 -10.667 59.001 -32l209 -311c4 -8 6.33301 -13.667 7 -17c0.666992 -2.66699 1 -5.66699 1 -9
c0 -19.333 -8 -34.333 -24 -45c-10 -8 -21.333 -12 -34 -12c-14 0 -26.333 5.66699 -37 17zM498.999 582c-74 0 -134.333 -23.167 -181 -69.5s-70 -102.5 -70 -168.5c0 -68.667 23.833 -125.5 71.5 -170.5s107.5 -67.5 179.5 -67.5c64 0 119.667 23.167 167 69.5
s71 102.5 71 168.5c0 68 -24.5 124.667 -73.5 170s-103.833 68 -164.5 68zM466.999 717c69.333 0 129.334 -18.166 180.001 -54.499s80 -70.833 88 -103.5v96c0 94.667 -21.167 168.167 -63.5 220.5s-102.5 78.5 -180.5 78.5c-46 0 -89.333 -7.16699 -130 -21.5
s-72.334 -32.833 -95.001 -55.5l-78 104c89.333 72.667 190.333 109 303 109c110.667 0 202.5 -38.333 275.5 -115s109.5 -183.334 109.5 -320.001v-123v-532h-139v156v2c-1.33301 -13.333 -9.16602 -30.166 -23.499 -50.499s-32.833 -40.833 -55.5 -61.5
s-51.334 -38.334 -86.001 -53.001s-70 -22 -106 -22c-108 0 -197 34.333 -267 103s-105 158.667 -105 270c0 106.667 36.167 195.5 108.5 266.5s160.5 106.5 264.5 106.5z" />
    <glyph glyph-name="aacute" unicode="&#xe1;" horiz-adv-x="1036" 
d="M420 1218l206 314.002c16 22 36 33 60 33c17.333 0 32.666 -5.66699 45.999 -17c15.333 -10.667 25 -25.334 29 -44.001c0.666992 -4.66699 1 -9 1 -13c0 -16 -5.33301 -31.667 -16 -47l-238 -290c-9.33301 -11.333 -21.666 -17 -36.999 -17
c-13.333 0 -25.333 3.66699 -36 11c-12 9.33301 -19.333 20.666 -22 33.999c-0.666992 3.33301 -1 6.66602 -1 9.99902c0 8.66699 2.66699 17.334 8 26.001zM499 582.002c-74 0 -134.333 -23.167 -181 -69.5s-70 -102.5 -70 -168.5c0 -68.667 23.833 -125.5 71.5 -170.5
s107.5 -67.5 179.5 -67.5c64 0 119.667 23.167 167 69.5s71 102.5 71 168.5c0 68 -24.5 124.667 -73.5 170s-103.833 68 -164.5 68zM467 717.002c69.333 0 129.334 -18.166 180.001 -54.499s80 -70.833 88 -103.5v96c0 94.667 -21.167 168.167 -63.5 220.5
s-102.5 78.5 -180.5 78.5c-46 0 -89.333 -7.16699 -130 -21.5s-72.334 -32.833 -95.001 -55.5l-78 104c89.333 72.667 190.333 109 303 109c110.667 0 202.5 -38.333 275.5 -115s109.5 -183.334 109.5 -320.001v-123v-532h-139v156v2
c-1.33301 -13.333 -9.16602 -30.166 -23.499 -50.499s-32.833 -40.833 -55.5 -61.5s-51.334 -38.334 -86.001 -53.001s-70 -22 -106 -22c-108 0 -197 34.333 -267 103s-105 158.667 -105 270c0 106.667 36.167 195.5 108.5 266.5s160.5 106.5 264.5 106.5z" />
    <glyph glyph-name="acircumflex" unicode="&#xe2;" horiz-adv-x="1036" 
d="M835 1139h-188l-156 213l-158 -211h-186l277 342h131zM499 582c-74 0 -134.333 -23.167 -181 -69.5s-70 -102.5 -70 -168.5c0 -68.667 23.833 -125.5 71.5 -170.5s107.5 -67.5 179.5 -67.5c64 0 119.667 23.167 167 69.5s71 102.5 71 168.5c0 68 -24.5 124.667 -73.5 170
s-103.833 68 -164.5 68zM467 717c69.333 0 129.334 -18.166 180.001 -54.499s80 -70.833 88 -103.5v96c0 94.667 -21.167 168.167 -63.5 220.5s-102.5 78.5 -180.5 78.5c-46 0 -89.333 -7.16699 -130 -21.5s-72.334 -32.833 -95.001 -55.5l-78 104
c89.333 72.667 190.333 109 303 109c110.667 0 202.5 -38.333 275.5 -115s109.5 -183.334 109.5 -320.001v-123v-532h-139v156v2c-1.33301 -13.333 -9.16602 -30.166 -23.499 -50.499s-32.833 -40.833 -55.5 -61.5s-51.334 -38.334 -86.001 -53.001s-70 -22 -106 -22
c-108 0 -197 34.333 -267 103s-105 158.667 -105 270c0 106.667 36.167 195.5 108.5 266.5s160.5 106.5 264.5 106.5z" />
    <glyph glyph-name="atilde" unicode="&#xe3;" horiz-adv-x="1036" 
d="M184 1352c17.333 13.333 34.1699 27.1689 50.5029 41.502s36.5 27 60.5 38s48 16.5 72 16.5c18 0 36.333 -5.16699 55 -15.5s36 -23 52 -38l48 -44.5c16 -14.667 33.667 -27.167 53 -37.5s38.666 -15.5 57.999 -15.5c21.333 0 43.333 5.16699 66 15.5
s43.167 22.666 61.5 36.999l60.5 45.5v-145c-22 -16.667 -41.833 -32.334 -59.5 -47.001s-37.834 -27 -60.501 -37s-45.334 -15 -68.001 -15c-21.333 0 -42.5 5.16699 -63.5 15.5s-40.167 23 -57.5 38l-50 45c-16 15 -32.5 27.667 -49.5 38s-32.833 15.5 -47.5 15.5
c-24 0 -47 -5 -69 -15s-41.167 -22.167 -57.5 -36.5s-34.5 -29.5 -54.5 -45.5v146zM499.004 582.003c-74 0 -134.333 -23.167 -181 -69.5s-70 -102.5 -70 -168.5c0 -68.667 23.833 -125.5 71.5 -170.5s107.5 -67.5 179.5 -67.5c64 0 119.667 23.167 167 69.5
s71 102.5 71 168.5c0 68 -24.5 124.667 -73.5 170s-103.833 68 -164.5 68zM467.004 717.003c69.333 0 129.334 -18.166 180.001 -54.499s80 -70.833 88 -103.5v96c0 94.667 -21.167 168.167 -63.5 220.5s-102.5 78.5 -180.5 78.5c-46 0 -89.333 -7.16699 -130 -21.5
s-72.334 -32.833 -95.001 -55.5l-78 104c89.333 72.667 190.333 109 303 109c110.667 0 202.5 -38.333 275.5 -115s109.5 -183.334 109.5 -320.001v-123v-532h-139v156v2c-1.33301 -13.333 -9.16602 -30.166 -23.499 -50.499s-32.833 -40.833 -55.5 -61.5
s-51.334 -38.334 -86.001 -53.001s-70 -22 -106 -22c-108 0 -197 34.333 -267 103s-105 158.667 -105 270c0 106.667 36.167 195.5 108.5 266.5s160.5 106.5 264.5 106.5z" />
    <glyph glyph-name="adieresis" unicode="&#xe4;" horiz-adv-x="1036" 
d="M641 1280c0 25.333 9.33301 47.332 28 65.999s40.667 28 66 28c22 0 41.667 -7.16699 59 -21.5s28.333 -32.166 33 -53.499c1.33301 -4.66699 2 -11 2 -19c0 -26 -9.33301 -48.333 -28 -67s-40.667 -28 -66 -28c-22 0 -41.667 7.16699 -59 21.5s-28.333 32.5 -33 54.5
c-1.33301 8 -2 14.333 -2 19zM170 1278c0 25.333 9.33301 47.332 28 65.999s40.667 28 66 28c22 0 41.667 -7.16699 59 -21.5s28.333 -32.166 33 -53.499c1.33301 -4.66699 2 -11 2 -19c0 -26 -9.33301 -48.333 -28 -67s-40.667 -28 -66 -28c-22 0 -41.667 7.16699 -59 21.5
s-28.333 32.5 -33 54.5c-1.33301 4 -2 10.333 -2 19zM499 581.998c-74 0 -134.333 -23.167 -181 -69.5s-70 -102.5 -70 -168.5c0 -68.667 23.833 -125.5 71.5 -170.5s107.5 -67.5 179.5 -67.5c64 0 119.667 23.167 167 69.5s71 102.5 71 168.5c0 68 -24.5 124.667 -73.5 170
s-103.833 68 -164.5 68zM467 716.998c69.333 0 129.334 -18.166 180.001 -54.499s80 -70.833 88 -103.5v96c0 94.667 -21.167 168.167 -63.5 220.5s-102.5 78.5 -180.5 78.5c-46 0 -89.333 -7.16699 -130 -21.5s-72.334 -32.833 -95.001 -55.5l-78 104
c89.333 72.667 190.333 109 303 109c110.667 0 202.5 -38.333 275.5 -115s109.5 -183.334 109.5 -320.001v-123v-532h-139v156v2c-1.33301 -13.333 -9.16602 -30.166 -23.499 -50.499s-32.833 -40.833 -55.5 -61.5s-51.334 -38.334 -86.001 -53.001s-70 -22 -106 -22
c-108 0 -197 34.333 -267 103s-105 158.667 -105 270c0 106.667 36.167 195.5 108.5 266.5s160.5 106.5 264.5 106.5z" />
    <glyph glyph-name="aring" unicode="&#xe5;" horiz-adv-x="1036" 
d="M364 1368c0 -12 1 -23.334 3 -34.001c7.33301 -34 24 -61.833 50 -83.5s56.333 -32.5 91 -32.5c40.667 0 74.834 14.5 102.501 43.5s41.5 64.5 41.5 106.5c0 10.667 -1 21.667 -3 33c-7.33301 34 -24 62 -50 84s-56.333 33 -91 33
c-40.667 0 -74.834 -14.667 -102.501 -44s-41.5 -64.666 -41.5 -105.999zM246 1364c0 71.333 25.502 132.167 76.502 182.5s112.833 75.5 185.5 75.5c62.667 0 118 -19.333 166 -58s78.333 -87.667 91 -147c3.33301 -14 5 -31.667 5 -53c0 -72 -25.5 -133.167 -76.5 -183.5
s-112.833 -75.5 -185.5 -75.5c-62.667 0 -117.834 19.333 -165.501 58s-77.834 87.667 -90.501 147c-4 17.333 -6 35.333 -6 54zM499.002 582c-74 0 -134.333 -23.167 -181 -69.5s-70 -102.5 -70 -168.5c0 -68.667 23.833 -125.5 71.5 -170.5s107.5 -67.5 179.5 -67.5
c64 0 119.667 23.167 167 69.5s71 102.5 71 168.5c0 68 -24.5 124.667 -73.5 170s-103.833 68 -164.5 68zM467.002 717c69.333 0 129.334 -18.166 180.001 -54.499s80 -70.833 88 -103.5v96c0 94.667 -21.167 168.167 -63.5 220.5s-102.5 78.5 -180.5 78.5
c-46 0 -89.333 -7.16699 -130 -21.5s-72.334 -32.833 -95.001 -55.5l-78 104c89.333 72.667 190.333 109 303 109c110.667 0 202.5 -38.333 275.5 -115s109.5 -183.334 109.5 -320.001v-123v-532h-139v156v2c-1.33301 -13.333 -9.16602 -30.166 -23.499 -50.499
s-32.833 -40.833 -55.5 -61.5s-51.334 -38.334 -86.001 -53.001s-70 -22 -106 -22c-108 0 -197 34.333 -267 103s-105 158.667 -105 270c0 106.667 36.167 195.5 108.5 266.5s160.5 106.5 264.5 106.5z" />
    <glyph glyph-name="ae" unicode="&#xe6;" horiz-adv-x="1486" 
d="M436 602c-70 0 -120.832 -23.335 -152.499 -70.002s-47.5 -106 -47.5 -178c0 -32.667 2.66699 -61 8 -85c22.667 -108.667 86.667 -163 192 -163c61.333 0 110.166 24 146.499 72s54.5 106.667 54.5 176c0 20.667 -2.33301 44.334 -7 71.001
c-11.333 52.667 -34 95.334 -68 128.001s-76 49 -126 49zM721.001 909.998c38.667 63.333 78.334 109.834 119.001 139.501s94.334 44.5 161.001 44.5c96 0 173.5 -30 232.5 -90s99.5 -142.667 121.5 -248c14 -62.667 21 -135.667 21 -219c0 -7.33301 -0.5 -18.5 -1.5 -33.5
s-1.5 -26.5 -1.5 -34.5h-590c0 -48.667 5 -96.667 15 -144c13.333 -62 36.166 -114 68.499 -156s77.166 -63 134.499 -63c12 0 22.833 0.833008 32.5 2.5s18.667 4.16699 27 7.5s15.833 7.33301 22.5 12s13 10 19 16s11.667 12.667 17 20s10.333 15.166 15 23.499l14.5 26.5
l15.5 29l133 -55c-37.333 -73.333 -77.833 -127.833 -121.5 -163.5s-101.834 -53.5 -174.501 -53.5c-26 0 -49.667 2 -71 6s-40.833 11 -58.5 21s-32.5 19.167 -44.5 27.5s-25.333 22 -40 41s-25.667 33.833 -33 44.5l-35 53c-12 -19.333 -22.5 -38.166 -31.5 -56.499
s-20.833 -35.666 -35.5 -51.999s-30.834 -30.833 -48.501 -43.5s-40.667 -22.667 -69 -30s-61.166 -11 -98.499 -11c-90.667 0 -165.834 25.5 -225.501 76.5s-98.5 118.833 -116.5 203.5c-6.66699 36.667 -10 71 -10 103c0 108.667 33.333 199.667 100 273
s150.667 110 252 110c58 0 100.667 -8.5 128 -25.5s53 -43.167 77 -78.5c0.666992 4.66699 0.333984 14.334 -0.999023 29.001s-1.33301 24.667 0 30c0 36 -3.33301 68.333 -10 97c-22.667 110 -86 165 -190 165c-43.333 0 -78.333 -6.33301 -105 -19s-53 -32 -79 -58
l-78 102c16 14 32.833 27.667 50.5 41s35.334 25.166 53.001 35.499s40 18.666 67 24.999s57.5 9.5 91.5 9.5c62.667 0 116.167 -14.833 160.5 -44.5s84.5 -74.834 120.5 -135.501zM783.001 603.999h438c-4 47.333 -10.333 90 -19 128c-31.333 150.667 -98.333 226 -201 226
c-38.667 0 -72.667 -11 -102 -33s-51.833 -51.167 -67.5 -87.5s-27.5 -74 -35.5 -113s-12.333 -79.167 -13 -120.5z" />
    <glyph glyph-name="ccedilla" unicode="&#xe7;" horiz-adv-x="1011" 
d="M385 -294l28.499 21.502c5.66699 4.33301 15 12.166 28 23.499s22.5 21.833 28.5 31.5s9 18.834 9 27.501c0 3.33301 -0.666992 8.33301 -2 15c-2 11.333 -8 24.666 -18 39.999s-21.667 31.666 -35 48.999l129 56c42.667 -41.333 69.334 -86 80.001 -134
c2.66699 -16 4 -28.667 4 -38c0 -21.333 -4.5 -41.333 -13.5 -60s-22.833 -36.167 -41.5 -52.5s-35 -29.5 -49 -39.5s-33.333 -22.333 -58 -37l-47 -28zM754.999 809.002c-12 33.333 -38.0039 66.5049 -78.0039 99.5049s-83.333 49.5 -130 49.5
c-84.667 0 -157.167 -39.833 -217.5 -119.5s-90.5 -180.167 -90.5 -301.5c0 -129.333 29.333 -233.5 88 -312.5s131.334 -118.5 218.001 -118.5c28.667 0 56.167 5.83301 82.5 17.5s48.5 26.5 66.5 44.5s32.5 35 43.5 51s19.833 31 26.5 45l122 -77
c-16 -27.333 -34.667 -53 -56 -77s-46.166 -46.833 -74.499 -68.5s-60.666 -38.834 -96.999 -51.501s-74.166 -19 -113.499 -19c-87.333 0 -166.166 25.333 -236.499 76s-125 119.167 -164 205.5s-58.5 181.166 -58.5 284.499c0 57.333 6.66699 113.166 20 167.499
s33.333 105 60 152s58.167 88.167 94.5 123.5s79.166 63.166 128.499 83.499s102 30.5 158 30.5c76 0 142.5 -20.333 199.5 -61s103.5 -93.334 139.5 -158.001z" />
    <glyph glyph-name="egrave" unicode="&#xe8;" horiz-adv-x="1046" 
d="M535 1170l-242.001 287c-8 11.333 -13 22.333 -15 33c-1.33301 4.66699 -2 9.66699 -2 15c0 24 10.667 43.333 32 58c14 10.667 29.333 16 46 16c22.667 0 42.334 -10.667 59.001 -32l209 -311c4 -8 6.33301 -13.667 7 -17c0.666992 -2.66699 1 -5.66699 1 -9
c0 -19.333 -8 -34.333 -24 -45c-10 -8 -21.333 -12 -34 -12c-14 0 -26.333 5.66699 -37 17zM266.999 604l522.002 -0.00195312c-6 96.667 -32.333 179.834 -79 249.501s-107.334 104.5 -182.001 104.5c-50.667 0 -95.834 -18 -135.501 -54s-69.5 -80.167 -89.5 -132.5
s-32 -108.166 -36 -167.499zM267.001 468.998c5.33301 -64 17.999 -122.668 37.999 -176.001s49.5 -97.833 88.5 -133.5s83.833 -53.5 134.5 -53.5c48 0 95.5 12.833 142.5 38.5s81.167 58.5 102.5 98.5l133 -55c-34 -66 -85.833 -118.667 -155.5 -158
s-143.834 -59 -222.501 -59c-86.667 0 -162.167 25.5 -226.5 76.5s-112.666 118.833 -144.999 203.5s-48.5 180 -48.5 286s16.333 200.667 49 284s81 149.666 145 198.999s139.333 74 226 74c64.667 0 123.334 -15.167 176.001 -45.5s95.5 -70.666 128.5 -120.999
s58.167 -106.5 75.5 -168.5s26 -126.667 26 -194c0 -7.33301 0.166992 -23.166 0.5 -47.499s0.5 -40.5 0.5 -48.5h-668z" />
    <glyph glyph-name="eacute" unicode="&#xe9;" horiz-adv-x="1046" 
d="M418 1242l206 314.002c16 22 36 33 60 33c17.333 0 32.666 -5.66699 45.999 -17c15.333 -10.667 25 -25.334 29 -44.001c0.666992 -4.66699 1 -9 1 -13c0 -16 -5.33301 -31.667 -16 -47l-238 -290c-9.33301 -11.333 -21.666 -17 -36.999 -17
c-13.333 0 -25.333 3.66699 -36 11c-12 9.33301 -19.333 20.666 -22 33.999c-0.666992 3.33301 -1 6.66602 -1 9.99902c0 8.66699 2.66699 17.334 8 26.001zM267 604.002l522.002 -0.00195312c-6 96.667 -32.333 179.834 -79 249.501s-107.334 104.5 -182.001 104.5
c-50.667 0 -95.834 -18 -135.501 -54s-69.5 -80.167 -89.5 -132.5s-32 -108.166 -36 -167.499zM267.002 469c5.33301 -64 17.999 -122.668 37.999 -176.001s49.5 -97.833 88.5 -133.5s83.833 -53.5 134.5 -53.5c48 0 95.5 12.833 142.5 38.5s81.167 58.5 102.5 98.5l133 -55
c-34 -66 -85.833 -118.667 -155.5 -158s-143.834 -59 -222.501 -59c-86.667 0 -162.167 25.5 -226.5 76.5s-112.666 118.833 -144.999 203.5s-48.5 180 -48.5 286s16.333 200.667 49 284s81 149.666 145 198.999s139.333 74 226 74c64.667 0 123.334 -15.167 176.001 -45.5
s95.5 -70.666 128.5 -120.999s58.167 -106.5 75.5 -168.5s26 -126.667 26 -194c0 -7.33301 0.166992 -23.166 0.5 -47.499s0.5 -40.5 0.5 -48.5h-668z" />
    <glyph glyph-name="ecircumflex" unicode="&#xea;" horiz-adv-x="1046" 
d="M874 1153h-188l-156 213l-158 -211h-186l277 342h131zM267 604l522.002 -0.00195312c-6 96.667 -32.333 179.834 -79 249.501s-107.334 104.5 -182.001 104.5c-50.667 0 -95.834 -18 -135.501 -54s-69.5 -80.167 -89.5 -132.5s-32 -108.166 -36 -167.499z
M267.002 468.998c5.33301 -64 17.999 -122.668 37.999 -176.001s49.5 -97.833 88.5 -133.5s83.833 -53.5 134.5 -53.5c48 0 95.5 12.833 142.5 38.5s81.167 58.5 102.5 98.5l133 -55c-34 -66 -85.833 -118.667 -155.5 -158s-143.834 -59 -222.501 -59
c-86.667 0 -162.167 25.5 -226.5 76.5s-112.666 118.833 -144.999 203.5s-48.5 180 -48.5 286s16.333 200.667 49 284s81 149.666 145 198.999s139.333 74 226 74c64.667 0 123.334 -15.167 176.001 -45.5s95.5 -70.666 128.5 -120.999s58.167 -106.5 75.5 -168.5
s26 -126.667 26 -194c0 -7.33301 0.166992 -23.166 0.5 -47.499s0.5 -40.5 0.5 -48.5h-668z" />
    <glyph glyph-name="edieresis" unicode="&#xeb;" horiz-adv-x="1046" 
d="M674 1282c0 25.333 9.33301 47.332 28 65.999s40.667 28 66 28c22 0 41.667 -7.16699 59 -21.5s28.333 -32.166 33 -53.499c1.33301 -4.66699 2 -11 2 -19c0 -26 -9.33301 -48.333 -28 -67s-40.667 -28 -66 -28c-22 0 -41.667 7.16699 -59 21.5s-28.333 32.5 -33 54.5
c-1.33301 8 -2 14.333 -2 19zM203 1280c0 25.333 9.33301 47.332 28 65.999s40.667 28 66 28c22 0 41.667 -7.16699 59 -21.5s28.333 -32.166 33 -53.499c1.33301 -4.66699 2 -11 2 -19c0 -26 -9.33301 -48.333 -28 -67s-40.667 -28 -66 -28c-22 0 -41.667 7.16699 -59 21.5
s-28.333 32.5 -33 54.5c-1.33301 4 -2 10.333 -2 19zM267 603.998l522.002 -0.00195312c-6 96.667 -32.333 179.834 -79 249.501s-107.334 104.5 -182.001 104.5c-50.667 0 -95.834 -18 -135.501 -54s-69.5 -80.167 -89.5 -132.5s-32 -108.166 -36 -167.499z
M267.002 468.996c5.33301 -64 17.999 -122.668 37.999 -176.001s49.5 -97.833 88.5 -133.5s83.833 -53.5 134.5 -53.5c48 0 95.5 12.833 142.5 38.5s81.167 58.5 102.5 98.5l133 -55c-34 -66 -85.833 -118.667 -155.5 -158s-143.834 -59 -222.501 -59
c-86.667 0 -162.167 25.5 -226.5 76.5s-112.666 118.833 -144.999 203.5s-48.5 180 -48.5 286s16.333 200.667 49 284s81 149.666 145 198.999s139.333 74 226 74c64.667 0 123.334 -15.167 176.001 -45.5s95.5 -70.666 128.5 -120.999s58.167 -106.5 75.5 -168.5
s26 -126.667 26 -194c0 -7.33301 0.166992 -23.166 0.5 -47.499s0.5 -40.5 0.5 -48.5h-668z" />
    <glyph glyph-name="igrave" unicode="&#xec;" horiz-adv-x="428" 
d="M150 1073h151v-1073h-151v1073zM183 1174l-242.001 287c-8 11.333 -13 22.333 -15 33c-1.33301 4.66699 -2 9.66699 -2 15c0 24 10.667 43.333 32 58c14 10.667 29.333 16 46 16c22.667 0 42.334 -10.667 59.001 -32l209 -311c4 -8 6.33301 -13.667 7 -17
c0.666992 -2.66699 1 -5.66699 1 -9c0 -19.333 -8 -34.333 -24 -45c-10 -8 -21.333 -12 -34 -12c-14 0 -26.333 5.66699 -37 17z" />
    <glyph glyph-name="iacute" unicode="&#xed;" horiz-adv-x="421" 
d="M150 1073h151v-1073h-151v1073zM181 1224l206 314.002c16 22 36 33 60 33c17.333 0 32.666 -5.66699 45.999 -17c15.333 -10.667 25 -25.334 29 -44.001c0.666992 -4.66699 1 -9 1 -13c0 -16 -5.33301 -31.667 -16 -47l-238 -290
c-9.33301 -11.333 -21.666 -17 -36.999 -17c-13.333 0 -25.333 3.66699 -36 11c-12 9.33301 -19.333 20.666 -22 33.999c-0.666992 3.33301 -1 6.66602 -1 9.99902c0 8.66699 2.66699 17.334 8 26.001z" />
    <glyph glyph-name="icircumflex" unicode="&#xee;" horiz-adv-x="888" 
d="M391 1073h152v-1073h-152v1073zM803 1118h-188l-156 213l-158 -211h-186l277 342h131z" />
    <glyph glyph-name="idieresis" unicode="&#xef;" horiz-adv-x="667" 
d="M272 1073h152v-1073h-152v1073zM479 1268c0 25.333 9.33301 47.332 28 65.999s40.667 28 66 28c22 0 41.667 -7.16699 59 -21.5s28.333 -32.166 33 -53.499c1.33301 -4.66699 2 -11 2 -19c0 -26 -9.33301 -48.333 -28 -67s-40.667 -28 -66 -28
c-22 0 -41.667 7.16699 -59 21.5s-28.333 32.5 -33 54.5c-1.33301 8 -2 14.333 -2 19zM8 1266c0 25.333 9.33301 47.332 28 65.999s40.667 28 66 28c22 0 41.667 -7.16699 59 -21.5s28.333 -32.166 33 -53.499c1.33301 -4.66699 2 -11 2 -19c0 -26 -9.33301 -48.333 -28 -67
s-40.667 -28 -66 -28c-22 0 -41.667 7.16699 -59 21.5s-28.333 32.5 -33 54.5c-1.33301 4 -2 10.333 -2 19z" />
    <glyph glyph-name="eth" unicode="&#xf0;" horiz-adv-x="1030" 
d="M233 455c0 -30.667 3.33301 -62.668 10 -96.001c16.667 -78 50.167 -139.667 100.5 -185s99.833 -68 148.5 -68c75.333 0 141.5 35.833 198.5 107.5s85.5 152.167 85.5 241.5c0 24.667 -2.33301 46.667 -7 66c-16 76.667 -55.5 140.834 -118.5 192.501
s-128.833 77.5 -197.5 77.5c-39.333 0 -76.333 -17.667 -111 -53s-61.5 -78.833 -80.5 -130.5s-28.5 -102.5 -28.5 -152.5zM684 1290c44.667 -51.333 88.8281 -115.664 132.495 -192.997s73.5 -153 89.5 -227c5.33301 -24 8.33301 -47 9 -69
c3.33301 -37.333 6.33301 -79.166 9 -125.499s4 -91.5 4 -135.5v-38c0 -152.667 -41.167 -279.334 -123.5 -380.001s-183.166 -151 -302.499 -151c-114.667 0 -205.5 30.667 -272.5 92s-111.167 142.666 -132.5 243.999c-10 48 -15 98.667 -15 152
c0 129.333 36.833 239.5 110.5 330.5s163.834 136.5 270.501 136.5c27.333 0 52.833 -2.33301 76.5 -7s43.334 -9.83398 59.001 -15.501s32 -14.5 49 -26.5s30 -22 39 -30l37.5 -35l36 -34c0 21.333 -3 45.666 -9 72.999c-13.333 62.667 -37.333 129 -72 199
s-70.667 121.333 -108 154l-153 -143l-99 100l136 129c-47.333 16.667 -100.666 25 -159.999 25c-27.333 0 -65.666 -2.66699 -114.999 -8l-14 147c18 1.33301 45.333 2 82 2c128 0 237 -23.333 327 -70l156 140l96 -109z" />
    <glyph glyph-name="ntilde" unicode="&#xf1;" horiz-adv-x="1044" 
d="M202 1364c17.333 13.333 34.1699 27.1689 50.5029 41.502s36.5 27 60.5 38s48 16.5 72 16.5c18 0 36.333 -5.16699 55 -15.5s36 -23 52 -38l48 -44.5c16 -14.667 33.667 -27.167 53 -37.5s38.666 -15.5 57.999 -15.5c21.333 0 43.333 5.16699 66 15.5
s43.167 22.666 61.5 36.999l60.5 45.5v-145c-22 -16.667 -41.833 -32.334 -59.5 -47.001s-37.834 -27 -60.501 -37s-45.334 -15 -68.001 -15c-21.333 0 -42.5 5.16699 -63.5 15.5s-40.167 23 -57.5 38l-50 45c-16 15 -32.5 27.667 -49.5 38s-32.833 15.5 -47.5 15.5
c-24 0 -47 -5 -69 -15s-41.167 -22.167 -57.5 -36.5s-34.5 -29.5 -54.5 -45.5v146zM291.004 0.00292969l-151.999 0.00195312v1073h152v-181c18.667 59.333 55.167 109.166 109.5 149.499s119.5 60.5 195.5 60.5c54.667 0 104.167 -11 148.5 -33
s83.166 -55.333 116.499 -100s59.166 -103.167 77.499 -175.5s27.5 -156.5 27.5 -252.5v-541h-151v541c0 60 -4.83301 115 -14.5 165s-24.5 94.667 -44.5 134s-47 70 -81 92s-73.667 33 -119 33s-85.166 -11.333 -119.499 -34s-62 -53.834 -83 -93.501
s-36.667 -84.5 -47 -134.5s-15.5 -104.333 -15.5 -163v-540z" />
    <glyph glyph-name="ograve" unicode="&#xf2;" horiz-adv-x="1060" 
d="M523 1166l-242.001 287c-8 11.333 -13 22.333 -15 33c-1.33301 4.66699 -2 9.66699 -2 15c0 24 10.667 43.333 32 58c14 10.667 29.333 16 46 16c22.667 0 42.334 -10.667 59.001 -32l209 -311c4 -8 6.33301 -13.667 7 -17c0.666992 -2.66699 1 -5.66699 1 -9
c0 -19.333 -8 -34.333 -24 -45c-10 -8 -21.333 -12 -34 -12c-14 0 -26.333 5.66699 -37 17zM111.999 537c0 79.333 9.5 152.669 28.5 220.002s46.333 126.166 82 176.499s81.5 89.666 137.5 117.999s119 42.5 189 42.5c92 0 171.5 -25 238.5 -75s116.667 -116.333 149 -199
s48.5 -177 48.5 -283c0 -107.333 -15.833 -203 -47.5 -287s-81 -151.5 -148 -202.5s-147.167 -76.5 -240.5 -76.5c-92.667 0 -172.5 25.667 -239.5 77s-116.667 119 -149 203s-48.5 179.333 -48.5 286zM265.999 537.003c0 -60 5.33008 -115.333 15.9971 -166
s27 -96.167 49 -136.5s51.5 -71.833 88.5 -94.5s80.167 -34 129.5 -34c48.667 0 91.5 11.333 128.5 34s66.5 54.167 88.5 94.5s38.333 85.833 49 136.5s16 106 16 166c0 80.667 -9.16699 151.5 -27.5 212.5s-49.166 111 -92.499 150s-97.333 58.5 -162 58.5
c-65.333 0 -119.666 -19.5 -162.999 -58.5s-74.166 -89 -92.499 -150s-27.5 -131.833 -27.5 -212.5z" />
    <glyph glyph-name="oacute" unicode="&#xf3;" horiz-adv-x="1062" 
d="M465 1238l206 314.002c16 22 36 33 60 33c17.333 0 32.666 -5.66699 45.999 -17c15.333 -10.667 25 -25.334 29 -44.001c0.666992 -4.66699 1 -9 1 -13c0 -16 -5.33301 -31.667 -16 -47l-238 -290c-9.33301 -11.333 -21.666 -17 -36.999 -17
c-13.333 0 -25.333 3.66699 -36 11c-12 9.33301 -19.333 20.666 -22 33.999c-0.666992 3.33301 -1 6.66602 -1 9.99902c0 8.66699 2.66699 17.334 8 26.001zM112 537.002c0 79.333 9.5 152.669 28.5 220.002s46.333 126.166 82 176.499s81.5 89.666 137.5 117.999
s119 42.5 189 42.5c92 0 171.5 -25 238.5 -75s116.667 -116.333 149 -199s48.5 -177 48.5 -283c0 -107.333 -15.833 -203 -47.5 -287s-81 -151.5 -148 -202.5s-147.167 -76.5 -240.5 -76.5c-92.667 0 -172.5 25.667 -239.5 77s-116.667 119 -149 203
s-48.5 179.333 -48.5 286zM266 537.005c0 -60 5.33008 -115.333 15.9971 -166s27 -96.167 49 -136.5s51.5 -71.833 88.5 -94.5s80.167 -34 129.5 -34c48.667 0 91.5 11.333 128.5 34s66.5 54.167 88.5 94.5s38.333 85.833 49 136.5s16 106 16 166
c0 80.667 -9.16699 151.5 -27.5 212.5s-49.166 111 -92.499 150s-97.333 58.5 -162 58.5c-65.333 0 -119.666 -19.5 -162.999 -58.5s-74.166 -89 -92.499 -150s-27.5 -131.833 -27.5 -212.5z" />
    <glyph glyph-name="ocircumflex" unicode="&#xf4;" horiz-adv-x="1062" 
d="M872 1122h-188l-156 213l-158 -211h-186l277 342h131zM112 537c0 79.333 9.5 152.669 28.5 220.002s46.333 126.166 82 176.499s81.5 89.666 137.5 117.999s119 42.5 189 42.5c92 0 171.5 -25 238.5 -75s116.667 -116.333 149 -199s48.5 -177 48.5 -283
c0 -107.333 -15.833 -203 -47.5 -287s-81 -151.5 -148 -202.5s-147.167 -76.5 -240.5 -76.5c-92.667 0 -172.5 25.667 -239.5 77s-116.667 119 -149 203s-48.5 179.333 -48.5 286zM266 537.003c0 -60 5.33008 -115.333 15.9971 -166s27 -96.167 49 -136.5
s51.5 -71.833 88.5 -94.5s80.167 -34 129.5 -34c48.667 0 91.5 11.333 128.5 34s66.5 54.167 88.5 94.5s38.333 85.833 49 136.5s16 106 16 166c0 80.667 -9.16699 151.5 -27.5 212.5s-49.166 111 -92.499 150s-97.333 58.5 -162 58.5
c-65.333 0 -119.666 -19.5 -162.999 -58.5s-74.166 -89 -92.499 -150s-27.5 -131.833 -27.5 -212.5z" />
    <glyph glyph-name="otilde" unicode="&#xf5;" horiz-adv-x="1062" 
d="M227 1323c17.333 13.333 34.1699 27.1689 50.5029 41.502s36.5 27 60.5 38s48 16.5 72 16.5c18 0 36.333 -5.16699 55 -15.5s36 -23 52 -38l48 -44.5c16 -14.667 33.667 -27.167 53 -37.5s38.666 -15.5 57.999 -15.5c21.333 0 43.333 5.16699 66 15.5
s43.167 22.666 61.5 36.999l60.5 45.5v-145c-22 -16.667 -41.833 -32.334 -59.5 -47.001s-37.834 -27 -60.501 -37s-45.334 -15 -68.001 -15c-21.333 0 -42.5 5.16699 -63.5 15.5s-40.167 23 -57.5 38l-50 45c-16 15 -32.5 27.667 -49.5 38s-32.833 15.5 -47.5 15.5
c-24 0 -47 -5 -69 -15s-41.167 -22.167 -57.5 -36.5s-34.5 -29.5 -54.5 -45.5v146zM112.004 537.003c0 79.333 9.5 152.669 28.5 220.002s46.333 126.166 82 176.499s81.5 89.666 137.5 117.999s119 42.5 189 42.5c92 0 171.5 -25 238.5 -75s116.667 -116.333 149 -199
s48.5 -177 48.5 -283c0 -107.333 -15.833 -203 -47.5 -287s-81 -151.5 -148 -202.5s-147.167 -76.5 -240.5 -76.5c-92.667 0 -172.5 25.667 -239.5 77s-116.667 119 -149 203s-48.5 179.333 -48.5 286zM266.004 537.006c0 -60 5.33008 -115.333 15.9971 -166
s27 -96.167 49 -136.5s51.5 -71.833 88.5 -94.5s80.167 -34 129.5 -34c48.667 0 91.5 11.333 128.5 34s66.5 54.167 88.5 94.5s38.333 85.833 49 136.5s16 106 16 166c0 80.667 -9.16699 151.5 -27.5 212.5s-49.166 111 -92.499 150s-97.333 58.5 -162 58.5
c-65.333 0 -119.666 -19.5 -162.999 -58.5s-74.166 -89 -92.499 -150s-27.5 -131.833 -27.5 -212.5z" />
    <glyph glyph-name="odieresis" unicode="&#xf6;" horiz-adv-x="1060" 
d="M658 1276c0 25.333 9.33301 47.332 28 65.999s40.667 28 66 28c22 0 41.667 -7.16699 59 -21.5s28.333 -32.166 33 -53.499c1.33301 -4.66699 2 -11 2 -19c0 -26 -9.33301 -48.333 -28 -67s-40.667 -28 -66 -28c-22 0 -41.667 7.16699 -59 21.5s-28.333 32.5 -33 54.5
c-1.33301 8 -2 14.333 -2 19zM187 1274c0 25.333 9.33301 47.332 28 65.999s40.667 28 66 28c22 0 41.667 -7.16699 59 -21.5s28.333 -32.166 33 -53.499c1.33301 -4.66699 2 -11 2 -19c0 -26 -9.33301 -48.333 -28 -67s-40.667 -28 -66 -28c-22 0 -41.667 7.16699 -59 21.5
s-28.333 32.5 -33 54.5c-1.33301 4 -2 10.333 -2 19zM112 536.998c0 79.333 9.5 152.669 28.5 220.002s46.333 126.166 82 176.499s81.5 89.666 137.5 117.999s119 42.5 189 42.5c92 0 171.5 -25 238.5 -75s116.667 -116.333 149 -199s48.5 -177 48.5 -283
c0 -107.333 -15.833 -203 -47.5 -287s-81 -151.5 -148 -202.5s-147.167 -76.5 -240.5 -76.5c-92.667 0 -172.5 25.667 -239.5 77s-116.667 119 -149 203s-48.5 179.333 -48.5 286zM266 537.001c0 -60 5.33008 -115.333 15.9971 -166s27 -96.167 49 -136.5
s51.5 -71.833 88.5 -94.5s80.167 -34 129.5 -34c48.667 0 91.5 11.333 128.5 34s66.5 54.167 88.5 94.5s38.333 85.833 49 136.5s16 106 16 166c0 80.667 -9.16699 151.5 -27.5 212.5s-49.166 111 -92.499 150s-97.333 58.5 -162 58.5
c-65.333 0 -119.666 -19.5 -162.999 -58.5s-74.166 -89 -92.499 -150s-27.5 -131.833 -27.5 -212.5z" />
    <glyph glyph-name="divide" unicode="&#xf7;" horiz-adv-x="911" 
d="M119 705h677v-142h-677v142zM344 1007c0 30 10.668 55.5 32.001 76.5s46.666 31.5 75.999 31.5c26 0 48.667 -8.16699 68 -24.5s31.666 -36.5 36.999 -60.5c1.33301 -5.33301 2 -13 2 -23c0 -29.333 -10.5 -54.5 -31.5 -75.5s-46.167 -31.5 -75.5 -31.5
c-26 0 -48.667 8 -68 24s-31.666 36.333 -36.999 61c-2 6.66699 -3 14 -3 22zM344.001 278c0 30 10.668 55.5 32.001 76.5s46.666 31.5 75.999 31.5c26 0 48.667 -8.16699 68 -24.5s31.666 -36.5 36.999 -60.5c1.33301 -5.33301 2 -13 2 -23
c0 -29.333 -10.5 -54.5 -31.5 -75.5s-46.167 -31.5 -75.5 -31.5c-26 0 -48.667 8 -68 24s-31.666 36.333 -36.999 61c-2 6.66699 -3 14 -3 22z" />
    <glyph glyph-name="oslash" unicode="&#xf8;" horiz-adv-x="1024" 
d="M743 771l-374 -596.999c43.333 -45.333 93 -68 149 -68c46 0 86.667 13 122 39s63 60.5 83 103.5s34.833 88.833 44.5 137.5s14.5 99 14.5 151c0 57.333 -5 108.666 -15 153.999c-7.33301 33.333 -15.333 60 -24 80zM666 895.001
c-43.333 42 -92.666 63.002 -147.999 63.002c-43.333 0 -82.333 -12.667 -117 -38s-62.334 -58.5 -83.001 -99.5s-36.5 -85.833 -47.5 -134.5s-16.5 -98.334 -16.5 -149.001c0 -58 5 -110.667 15 -158c6 -28.667 14 -55.334 24 -80.001zM86 -28.9971l114.999 182.004
c-36.667 59.333 -63.667 128.666 -81 207.999c-12 60 -18 118.667 -18 176c0 106 15.833 200.667 47.5 284s79.334 149.666 143.001 198.999s138.834 74 225.501 74c87.333 0 162.666 -25 225.999 -75l49 79h155l-113 -181c38 -60 65 -129 81 -207
c12 -54 18 -111.667 18 -173c0 -106.667 -15.833 -202.334 -47.5 -287.001s-79.5 -152.334 -143.5 -203.001s-139 -76 -225 -76c-85.333 0 -161 26 -227 78l-48 -78h-157z" />
    <glyph glyph-name="ugrave" unicode="&#xf9;" horiz-adv-x="1032" 
d="M541 1135l-242.001 287c-8 11.333 -13 22.333 -15 33c-1.33301 4.66699 -2 9.66699 -2 15c0 24 10.667 43.333 32 58c14 10.667 29.333 16 46 16c22.667 0 42.334 -10.667 59.001 -32l209 -311c4 -8 6.33301 -13.667 7 -17c0.666992 -2.66699 1 -5.66699 1 -9
c0 -19.333 -8 -34.333 -24 -45c-10 -8 -21.333 -12 -34 -12c-14 0 -26.333 5.66699 -37 17zM804.999 1073l151.999 -0.00195312v-1073h-152v181c-18.667 -59.333 -55.167 -109.166 -109.5 -149.499s-119.5 -60.5 -195.5 -60.5c-54.667 0 -104.167 11 -148.5 33
s-83.166 55.333 -116.499 100s-59.166 103.167 -77.499 175.5s-27.5 156.5 -27.5 252.5v541h151v-541c0 -60 4.83301 -115 14.5 -165s24.5 -94.667 44.5 -134s47 -70 81 -92s73.667 -33 119 -33s85.166 11.333 119.499 34s62 53.834 83 93.501s36.667 84.5 47 134.5
s15.5 104.333 15.5 163v540z" />
    <glyph glyph-name="uacute" unicode="&#xfa;" horiz-adv-x="1064" 
d="M432 1218l206 314.002c16 22 36 33 60 33c17.333 0 32.666 -5.66699 45.999 -17c15.333 -10.667 25 -25.334 29 -44.001c0.666992 -4.66699 1 -9 1 -13c0 -16 -5.33301 -31.667 -16 -47l-238 -290c-9.33301 -11.333 -21.666 -17 -36.999 -17
c-13.333 0 -25.333 3.66699 -36 11c-12 9.33301 -19.333 20.666 -22 33.999c-0.666992 3.33301 -1 6.66602 -1 9.99902c0 8.66699 2.66699 17.334 8 26.001zM805 1073l151.999 -0.00195312v-1073h-152v181c-18.667 -59.333 -55.167 -109.166 -109.5 -149.499
s-119.5 -60.5 -195.5 -60.5c-54.667 0 -104.167 11 -148.5 33s-83.166 55.333 -116.499 100s-59.166 103.167 -77.499 175.5s-27.5 156.5 -27.5 252.5v541h151v-541c0 -60 4.83301 -115 14.5 -165s24.5 -94.667 44.5 -134s47 -70 81 -92s73.667 -33 119 -33
s85.166 11.333 119.499 34s62 53.834 83 93.501s36.667 84.5 47 134.5s15.5 104.333 15.5 163v540z" />
    <glyph glyph-name="ucircumflex" unicode="&#xfb;" horiz-adv-x="1064" 
d="M870 1196h-188l-156 213l-158 -211h-186l277 342h131zM805 1073l151.999 -0.00195312v-1073h-152v181c-18.667 -59.333 -55.167 -109.166 -109.5 -149.499s-119.5 -60.5 -195.5 -60.5c-54.667 0 -104.167 11 -148.5 33s-83.166 55.333 -116.499 100
s-59.166 103.167 -77.499 175.5s-27.5 156.5 -27.5 252.5v541h151v-541c0 -60 4.83301 -115 14.5 -165s24.5 -94.667 44.5 -134s47 -70 81 -92s73.667 -33 119 -33s85.166 11.333 119.499 34s62 53.834 83 93.501s36.667 84.5 47 134.5s15.5 104.333 15.5 163v540z" />
    <glyph glyph-name="udieresis" unicode="&#xfc;" horiz-adv-x="1064" 
d="M664 1284c0 25.333 9.33301 47.332 28 65.999s40.667 28 66 28c22 0 41.667 -7.16699 59 -21.5s28.333 -32.166 33 -53.499c1.33301 -4.66699 2 -11 2 -19c0 -26 -9.33301 -48.333 -28 -67s-40.667 -28 -66 -28c-22 0 -41.667 7.16699 -59 21.5s-28.333 32.5 -33 54.5
c-1.33301 8 -2 14.333 -2 19zM193 1282c0 25.333 9.33301 47.332 28 65.999s40.667 28 66 28c22 0 41.667 -7.16699 59 -21.5s28.333 -32.166 33 -53.499c1.33301 -4.66699 2 -11 2 -19c0 -26 -9.33301 -48.333 -28 -67s-40.667 -28 -66 -28c-22 0 -41.667 7.16699 -59 21.5
s-28.333 32.5 -33 54.5c-1.33301 4 -2 10.333 -2 19zM805 1073l151.999 -0.00195312v-1073h-152v181c-18.667 -59.333 -55.167 -109.166 -109.5 -149.499s-119.5 -60.5 -195.5 -60.5c-54.667 0 -104.167 11 -148.5 33s-83.166 55.333 -116.499 100
s-59.166 103.167 -77.499 175.5s-27.5 156.5 -27.5 252.5v541h151v-541c0 -60 4.83301 -115 14.5 -165s24.5 -94.667 44.5 -134s47 -70 81 -92s73.667 -33 119 -33s85.166 11.333 119.499 34s62 53.834 83 93.501s36.667 84.5 47 134.5s15.5 104.333 15.5 163v540z" />
    <glyph glyph-name="yacute" unicode="&#xfd;" horiz-adv-x="1064" 
d="M436 1205l206 314.002c16 22 36 33 60 33c17.333 0 32.666 -5.66699 45.999 -17c15.333 -10.667 25 -25.334 29 -44.001c0.666992 -4.66699 1 -9 1 -13c0 -16 -5.33301 -31.667 -16 -47l-238 -290c-9.33301 -11.333 -21.666 -17 -36.999 -17
c-13.333 0 -25.333 3.66699 -36 11c-12 9.33301 -19.333 20.666 -22 33.999c-0.666992 3.33301 -1 6.66602 -1 9.99902c0 8.66699 2.66699 17.334 8 26.001zM957 -17.998c0 -65.333 -12.6689 -125.834 -38.002 -181.501s-58.5 -101.334 -99.5 -137.001
s-86.667 -63.334 -137 -83.001s-101.166 -29.5 -152.499 -29.5c-142 0 -263 58 -363 174l106 85c68.667 -82 154.334 -123 257.001 -123c32.667 0 64.667 5.83301 96 17.5s60.666 28.334 87.999 50.001s49.333 51 66 88s25 78.5 25 124.5v214
c-18.667 -59.333 -55.167 -109.166 -109.5 -149.499s-119.5 -60.5 -195.5 -60.5c-54.667 0 -104.167 11 -148.5 33s-83.166 55.333 -116.499 100s-59.166 103.167 -77.499 175.5s-27.5 156.5 -27.5 252.5v541h151v-541c0 -60 4.83301 -115 14.5 -165s24.5 -94.667 44.5 -134
s47 -70 81 -92s73.667 -33 119 -33s85.166 11.333 119.499 34s62 53.834 83 93.501s36.667 84.5 47 134.5s15.5 104.333 15.5 163v540h152v-1091z" />
    <glyph glyph-name="thorn" unicode="&#xfe;" horiz-adv-x="1003" 
d="M281 0l-152.003 0.00292969v1454h152v-342c18.667 27.333 35.834 49.833 51.501 67.5s34.834 35.167 57.501 52.5s48.167 30.333 76.5 39s59.833 13 94.5 13c92.667 0 169.167 -33.333 229.5 -100s101.833 -154 124.5 -262c12.667 -58.667 19 -121.667 19 -189
c0 -60 -3.83301 -116 -11.5 -168s-21.167 -103.167 -40.5 -153.5s-44.166 -93.333 -74.499 -129s-69.833 -64.334 -118.5 -86.001s-104.334 -32.5 -167.001 -32.5c-37.333 0 -72.666 7.66699 -105.999 23s-59 32.166 -77 50.499s-32.333 35.166 -43 50.499l-15 23v-311z
M781.997 729.003c0 62 -5.66699 120.333 -17 175c-16 74.667 -41 134.167 -75 178.5s-73.667 66.5 -119 66.5c-35.333 0 -70.333 -10 -105 -30s-66.167 -47.5 -94.5 -82.5s-51.333 -79.5 -69 -133.5s-26.5 -112 -26.5 -174c0 -54 5.33301 -105 16 -153
c18.667 -88 51 -156.167 97 -204.5s93.667 -72.5 143 -72.5c76 0 136.667 37.833 182 113.5s68 181.167 68 316.5z" />
    <glyph glyph-name="ydieresis" unicode="&#xff;" horiz-adv-x="1064" 
d="M664 1313c0 25.333 9.33301 47.332 28 65.999s40.667 28 66 28c22 0 41.667 -7.16699 59 -21.5s28.333 -32.166 33 -53.499c1.33301 -4.66699 2 -11 2 -19c0 -26 -9.33301 -48.333 -28 -67s-40.667 -28 -66 -28c-22 0 -41.667 7.16699 -59 21.5s-28.333 32.5 -33 54.5
c-1.33301 8 -2 14.333 -2 19zM193 1311c0 25.333 9.33301 47.332 28 65.999s40.667 28 66 28c22 0 41.667 -7.16699 59 -21.5s28.333 -32.166 33 -53.499c1.33301 -4.66699 2 -11 2 -19c0 -26 -9.33301 -48.333 -28 -67s-40.667 -28 -66 -28c-22 0 -41.667 7.16699 -59 21.5
s-28.333 32.5 -33 54.5c-1.33301 4 -2 10.333 -2 19zM957 -18.002c0 -65.333 -12.6689 -125.834 -38.002 -181.501s-58.5 -101.334 -99.5 -137.001s-86.667 -63.334 -137 -83.001s-101.166 -29.5 -152.499 -29.5c-142 0 -263 58 -363 174l106 85
c68.667 -82 154.334 -123 257.001 -123c32.667 0 64.667 5.83301 96 17.5s60.666 28.334 87.999 50.001s49.333 51 66 88s25 78.5 25 124.5v214c-18.667 -59.333 -55.167 -109.166 -109.5 -149.499s-119.5 -60.5 -195.5 -60.5c-54.667 0 -104.167 11 -148.5 33
s-83.166 55.333 -116.499 100s-59.166 103.167 -77.499 175.5s-27.5 156.5 -27.5 252.5v541h151v-541c0 -60 4.83301 -115 14.5 -165s24.5 -94.667 44.5 -134s47 -70 81 -92s73.667 -33 119 -33s85.166 11.333 119.499 34s62 53.834 83 93.501s36.667 84.5 47 134.5
s15.5 104.333 15.5 163v540h152v-1091z" />
    <glyph glyph-name="figuredash" unicode="&#x2012;" horiz-adv-x="1087" 
d="M170 676h768v-135h-768v135z" />
    <glyph glyph-name="endash" unicode="&#x2013;" horiz-adv-x="1001" 
d="M170 676h686v-135h-686v135z" />
    <glyph glyph-name="emdash" unicode="&#x2014;" horiz-adv-x="1290" 
d="M150 676h1009v-135h-1009v135z" />
    <glyph glyph-name="quoteleft" unicode="&#x2018;" horiz-adv-x="385" 
d="M83 1200c0 29.333 3.16699 58.667 9.5 88s15.666 56.833 27.999 82.5s22.833 46.334 31.5 62.001s19.667 33.5 33 53.5l21 29l56 -31c-48 -68.667 -72 -128 -72 -178c26 0 48.667 -7.83301 68 -23.5s31.666 -35.834 36.999 -60.501c2 -6.66699 3 -14 3 -22
c0 -30 -10.667 -55.5 -32 -76.5s-46.666 -31.5 -75.999 -31.5c-26 0 -48.667 8.16699 -68 24.5s-31.666 36.5 -36.999 60.5c-1.33301 5.33301 -2 13 -2 23z" />
    <glyph glyph-name="quoteright" unicode="&#x2019;" horiz-adv-x="385" 
d="M310 1401c0 -29.333 -3.16699 -58.667 -9.5 -88s-15.666 -56.833 -27.999 -82.5s-22.833 -46.334 -31.5 -62.001s-19.667 -33.5 -33 -53.5l-21 -29l-56 31c48 68.667 72 128 72 178c-26 0 -48.667 7.83301 -68 23.5s-31.666 35.834 -36.999 60.501
c-2 6.66699 -3 14 -3 22c0 30 10.667 55.5 32 76.5s46.666 31.5 75.999 31.5c26 0 48.667 -8.16699 68 -24.5s31.666 -36.5 36.999 -60.5c1.33301 -5.33301 2 -13 2 -23z" />
    <glyph glyph-name="quotesinglbase" unicode="&#x201a;" horiz-adv-x="385" 
d="M314 111c0 -29.333 -3.16699 -58.667 -9.5 -88s-15.666 -56.833 -27.999 -82.5s-22.833 -46.334 -31.5 -62.001s-19.667 -33.5 -33 -53.5l-21 -29l-56 31c48 68.667 72 128 72 178c-26 0 -48.667 7.83301 -68 23.5s-31.666 35.834 -36.999 60.501c-2 6.66699 -3 14 -3 22
c0 30 10.667 55.5 32 76.5s46.666 31.5 75.999 31.5c26 0 48.667 -8.16699 68 -24.5s31.666 -36.5 36.999 -60.5c1.33301 -5.33301 2 -13 2 -23z" />
    <glyph glyph-name="quotereversed" unicode="&#x201b;" horiz-adv-x="385" 
d="M106 1200c0 29.333 3.16699 58.667 9.5 88s15.666 56.833 27.999 82.5s22.833 46.334 31.5 62.001s19.667 33.5 33 53.5l21 29l56 -31c-48 -68.667 -72 -128 -72 -178c26 0 48.667 -7.83301 68 -23.5s31.666 -35.834 36.999 -60.501c2 -6.66699 3 -14 3 -22
c0 -30 -10.667 -55.5 -32 -76.5s-46.666 -31.5 -75.999 -31.5c-26 0 -48.667 8.16699 -68 24.5s-31.666 36.5 -36.999 60.5c-1.33301 5.33301 -2 13 -2 23z" />
    <glyph glyph-name="quotedblleft" unicode="&#x201c;" horiz-adv-x="677" 
d="M411 1200c0 29.333 3.16699 58.667 9.5 88s15.666 56.833 27.999 82.5s22.833 46.334 31.5 62.001s19.667 33.5 33 53.5l21 29l56 -31c-48 -68.667 -72 -128 -72 -178c26 0 48.667 -7.83301 68 -23.5s31.666 -35.834 36.999 -60.501c2 -6.66699 3 -14 3 -22
c0 -30 -10.667 -55.5 -32 -76.5s-46.666 -31.5 -75.999 -31.5c-26 0 -48.667 8.16699 -68 24.5s-31.666 36.5 -36.999 60.5c-1.33301 5.33301 -2 13 -2 23zM81 1202c0 29.333 3.16699 58.667 9.5 88s15.666 56.833 27.999 82.5s22.833 46.334 31.5 62.001
s19.667 33.5 33 53.5l21 29l56 -31c-48 -68.667 -72 -128 -72 -178c26 0 48.667 -7.83301 68 -23.5s31.666 -35.834 36.999 -60.501c2 -6.66699 3 -14 3 -22c0 -30 -10.667 -55.5 -32 -76.5s-46.666 -31.5 -75.999 -31.5c-26 0 -48.667 8.16699 -68 24.5
s-31.666 36.5 -36.999 60.5c-1.33301 5.33301 -2 13 -2 23z" />
    <glyph glyph-name="quotedblright" unicode="&#x201d;" horiz-adv-x="677" 
d="M640 1401c0 -29.333 -3.16699 -58.667 -9.5 -88s-15.666 -56.833 -27.999 -82.5s-22.833 -46.334 -31.5 -62.001s-19.667 -33.5 -33 -53.5l-21 -29l-56 31c48 68.667 72 128 72 178c-26 0 -48.667 7.83301 -68 23.5s-31.666 35.834 -36.999 60.501
c-2 6.66699 -3 14 -3 22c0 30 10.667 55.5 32 76.5s46.666 31.5 75.999 31.5c26 0 48.667 -8.16699 68 -24.5s31.666 -36.5 36.999 -60.5c1.33301 -5.33301 2 -13 2 -23zM312 1403c0 -29.333 -3.16699 -58.667 -9.5 -88s-15.666 -56.833 -27.999 -82.5
s-22.833 -46.334 -31.5 -62.001s-19.667 -33.5 -33 -53.5l-21 -29l-56 31c48 68.667 72 128 72 178c-26 0 -48.667 7.83301 -68 23.5s-31.666 35.834 -36.999 60.501c-2 6.66699 -3 14 -3 22c0 30 10.667 55.5 32 76.5s46.666 31.5 75.999 31.5
c26 0 48.667 -8.16699 68 -24.5s31.666 -36.5 36.999 -60.5c1.33301 -5.33301 2 -13 2 -23z" />
    <glyph glyph-name="quotedblbase" unicode="&#x201e;" horiz-adv-x="688" 
d="M656 109c0 -29.333 -3.16699 -58.667 -9.5 -88s-15.666 -56.833 -27.999 -82.5s-22.833 -46.334 -31.5 -62.001s-19.667 -33.5 -33 -53.5l-21 -29l-56 31c48 68.667 72 128 72 178c-26 0 -48.667 7.83301 -68 23.5s-31.666 35.834 -36.999 60.501c-2 6.66699 -3 14 -3 22
c0 30 10.667 55.5 32 76.5s46.666 31.5 75.999 31.5c26 0 48.667 -8.16699 68 -24.5s31.666 -36.5 36.999 -60.5c1.33301 -5.33301 2 -13 2 -23zM328 110.999c0 -29.333 -3.16699 -58.667 -9.5 -88s-15.666 -56.833 -27.999 -82.5s-22.833 -46.334 -31.5 -62.001
s-19.667 -33.5 -33 -53.5l-21 -29l-56 31c48 68.667 72 128 72 178c-26 0 -48.667 7.83301 -68 23.5s-31.666 35.834 -36.999 60.501c-2 6.66699 -3 14 -3 22c0 30 10.667 55.5 32 76.5s46.666 31.5 75.999 31.5c26 0 48.667 -8.16699 68 -24.5s31.666 -36.5 36.999 -60.5
c1.33301 -5.33301 2 -13 2 -23z" />
    <glyph glyph-name="uni201F" unicode="&#x201f;" horiz-adv-x="688" 
d="M421 1194c0 29.333 3.16699 58.667 9.5 88s15.666 56.833 27.999 82.5s22.833 46.334 31.5 62.001s19.667 33.5 33 53.5l21 29l56 -31c-48 -68.667 -72 -128 -72 -178c26 0 48.667 -7.83301 68 -23.5s31.666 -35.834 36.999 -60.501c2 -6.66699 3 -14 3 -22
c0 -30 -10.667 -55.5 -32 -76.5s-46.666 -31.5 -75.999 -31.5c-26 0 -48.667 8.16699 -68 24.5s-31.666 36.5 -36.999 60.5c-1.33301 5.33301 -2 13 -2 23zM91 1196c0 29.333 3.16699 58.667 9.5 88s15.666 56.833 27.999 82.5s22.833 46.334 31.5 62.001
s19.667 33.5 33 53.5l21 29l56 -31c-48 -68.667 -72 -128 -72 -178c26 0 48.667 -7.83301 68 -23.5s31.666 -35.834 36.999 -60.501c2 -6.66699 3 -14 3 -22c0 -30 -10.667 -55.5 -32 -76.5s-46.666 -31.5 -75.999 -31.5c-26 0 -48.667 8.16699 -68 24.5
s-31.666 36.5 -36.999 60.5c-1.33301 5.33301 -2 13 -2 23z" />
    <glyph glyph-name="Euro" unicode="&#x20ac;" horiz-adv-x="1089" 
d="M270 762l-129 0.00195312v135h153c26 89.333 68.833 161.5 128.5 216.5s131.167 82.5 214.5 82.5c75.333 0 133.833 -9.66699 175.5 -29s88.167 -54 139.5 -104l-96 -96c-33.333 34 -64.666 58.167 -93.999 72.5s-71 21.5 -125 21.5c-40 0 -75.833 -15 -107.5 -45
s-57.834 -69.667 -78.501 -119h270v-135h-306c-2 -18.667 -3 -37 -3 -55c0 -21.333 1 -42 3 -62h300v-135h-265c22.667 -51.333 51.5 -91.5 86.5 -120.5s68.5 -43.5 100.5 -43.5c46 0 84.333 7.16699 115 21.5s66.667 44.166 108 89.499l96 -97
c-18 -20.667 -31.833 -36 -41.5 -46s-24.5 -22.833 -44.5 -38.5s-39.5 -27.334 -58.5 -35.001s-43.667 -14.5 -74 -20.5s-63.833 -9 -100.5 -9c-88 0 -160.833 27.333 -218.5 82s-99.167 127 -124.5 217h-159v135h136c-2 22 -3 44 -3 66c0 11.333 0.666992 28.333 2 51z" />
    <glyph glyph-name=".null" horiz-adv-x="0" 
 />
    <glyph glyph-name="nonmarkingreturn" horiz-adv-x="682" 
 />
    </font>
</defs>
</svg>
